<?xml version="1.0" encoding="UTF-8"?>
<svg version="1.1" xmlns="http://www.w3.org/2000/svg" width="154" height="102">
<path d="M0 0 C50.82 0 101.64 0 154 0 C154 33.66 154 67.32 154 102 C103.18 102 52.36 102 0 102 C0 68.34 0 34.68 0 0 Z " fill="#FDF0F0" transform="translate(0,0)"/>
<path d="M0 0 C50.82 0 101.64 0 154 0 C154 33.66 154 67.32 154 102 C103.18 102 52.36 102 0 102 C0 68.34 0 34.68 0 0 Z M79 7 C78.71125 7.969375 78.4225 8.93875 78.125 9.9375 C77 13 77 13 75 14 C75 14.99 75 15.98 75 17 C74.34 17.33 73.68 17.66 73 18 C73.99 18.66 74.98 19.32 76 20 C74.97527588 20.02505615 73.95055176 20.0501123 72.89477539 20.07592773 C69.10590324 20.16984484 65.31722119 20.27010317 61.52856445 20.37231445 C59.88635697 20.41572297 58.24410261 20.45739358 56.60180664 20.49731445 C54.24611255 20.5548744 51.89065572 20.61860892 49.53515625 20.68359375 C48.79660904 20.70030624 48.05806183 20.71701874 47.2971344 20.73423767 C43.85699373 20.53548013 43.85699373 20.53548013 41 22 C40.95919217 23.99958364 40.95745644 26.00045254 41 28 C43.64 28.33 46.28 28.66 49 29 C48.125 33.875 48.125 33.875 47 35 C46.95919217 36.99958364 46.95745644 39.00045254 47 41 C47.66 41 48.32 41 49 41 C49.33 41.99 49.66 42.98 50 44 C52.95664519 45.4783226 55.74229737 45.06032783 59 45 C61.03684712 40.92630576 61.0257259 38.41062136 60 34 C59.34 34 58.68 34 58 34 C58 33.34 58 32.68 58 32 C56.68 31.67 55.36 31.34 54 31 C54 30.34 54 29.68 54 29 C61.02920765 28.97463169 68.05840348 28.95712538 75.08764648 28.94506836 C77.47860149 28.9400416 79.86955343 28.93321925 82.26049805 28.92456055 C85.69841266 28.91242253 89.13628661 28.90675508 92.57421875 28.90234375 C94.17604256 28.89460182 94.17604256 28.89460182 95.81022644 28.88670349 C96.81088638 28.88662796 97.81154633 28.88655243 98.8425293 28.88647461 C99.71967087 28.884254 100.59681244 28.88203339 101.50053406 28.87974548 C104 29 104 29 109 30 C109 36.93 109 43.86 109 51 C108.67 51 108.34 51 108 51 C107.67 44.73 107.34 38.46 107 32 C103.25565647 30.75188549 99.7666983 30.85692066 95.8671875 30.8671875 C95.0747464 30.86623077 94.2823053 30.86527405 93.46585083 30.86428833 C91.79315105 30.86360841 90.12044861 30.86544958 88.44775391 30.86962891 C85.87787002 30.87499401 83.30815979 30.86967032 80.73828125 30.86328125 C79.11458295 30.86394179 77.49088475 30.86522244 75.8671875 30.8671875 C75.09430389 30.86516327 74.32142029 30.86313904 73.52511597 30.86105347 C69.96776259 30.54627888 69.96776259 30.54627888 67 32 C66.92686433 34.53049402 66.90752473 37.03304837 66.9375 39.5625 C66.94201172 40.27341797 66.94652344 40.98433594 66.95117188 41.71679688 C66.96299136 43.47790013 66.98092737 45.23896036 67 47 C61.2890625 48.0625 61.2890625 48.0625 58.6875 47.5 C54.71507861 46.76094486 50.97342664 47.43731431 47 48 C47 48.33 47 48.66 47 49 C48.65 49 50.3 49 52 49 C52 49.66 52 50.32 52 51 C50.35 51 48.7 51 47 51 C47 51.99 47 52.98 47 54 C47 54.66 47 55.32 47 56 C50.63 56 54.26 56 58 56 C57.67 56.99 57.34 57.98 57 59 C55.3603125 58.9071875 55.3603125 58.9071875 53.6875 58.8125 C50.07873917 58.64402086 50.07873917 58.64402086 48.0625 60.5 C47.711875 60.995 47.36125 61.49 47 62 C47.33 62.33 47.66 62.66 48 63 C49.52519276 62.91062197 51.04681929 62.75462854 52.5625 62.5625 C53.38878906 62.46066406 54.21507812 62.35882813 55.06640625 62.25390625 C55.70449219 62.17011719 56.34257813 62.08632813 57 62 C56.27786621 68.88517221 55.23970766 73.72911207 50.4375 78.85546875 C49 80 49 80 47 80 C46.34 77.69 45.68 75.38 45 73 C44.34 73 43.68 73 43 73 C42.79375 72.0925 42.5875 71.185 42.375 70.25 C41.29559073 66.75642761 41.29559073 66.75642761 38 65.375 C33.74409906 62.00574509 33.86255509 58.69702016 33.2265625 53.484375 C33.15179688 52.66453125 33.07703125 51.8446875 33 51 C34.485 51.495 34.485 51.495 36 52 C38.67676547 50.62750037 38.67676547 50.62750037 41 49 C40.96906827 46.58414426 40.96906827 46.58414426 40 44 C35.75025003 41.06564883 32.10069797 40.16534033 27 41 C23.78804758 43.99295566 22.03508829 46.66563661 20.375 50.6875 C19 54 19 54 17.4375 55.4375 C14.96723758 58.12256784 14.42022069 61.47989049 14 65 C14.1347439 67.34839369 14.41255191 69.60398803 14.80859375 71.921875 C15.02065086 74.22420933 14.59159318 75.7772999 14 78 C13.88575833 79.70565467 13.82525693 81.41557136 13.8125 83.125 C13.79832031 83.99382812 13.78414062 84.86265625 13.76953125 85.7578125 C13.78256395 88.20329726 13.78256395 88.20329726 16 90 C16.99 90 17.98 90 19 90 C19 91.32 19 92.64 19 94 C24.0594675 95.62473971 28.77869267 96.39732782 34.09765625 96.6171875 C34.90405045 96.65472137 35.71044464 96.69225525 36.54127502 96.73092651 C47.86813888 97.19492343 59.20800495 97.14893191 70.54223633 97.13037109 C74.42728587 97.12501408 78.31221959 97.13034621 82.19726562 97.13671875 C101.26158974 97.14256517 120.13513036 96.94406299 139 94 C139.17015625 93.07380859 139.17015625 93.07380859 139.34375 92.12890625 C140.29894336 89.0302135 142.4877106 87.94702428 145 86 C146.55518219 81.33445344 145.53467219 76.80125205 145.05859375 71.95703125 C145.00294726 68.19903844 145.51545017 65.58233183 146.51293945 62.03344727 C148.44847962 53.95268833 148.36592341 43.135038 144.32421875 35.7890625 C140.02639948 29.98256921 134.4682417 26.95042604 128 24 C126.68 24.99 125.36 25.98 124 27 C124.33 26.443125 124.66 25.88625 125 25.3125 C126.1309601 22.69715478 126.15662974 20.8193354 126 18 C123.36 18 120.72 18 118 18 C118.58803797 21.02419525 119.22678118 24.01758453 120 27 C119.01 27 118.02 27 117 27 C116.01 23.04 116.01 23.04 115 19 C114.40832031 18.87882812 113.81664063 18.75765625 113.20703125 18.6328125 C108.96196415 17.73255357 104.97560339 16.79543379 101 15 C101.7763932 18.0745356 101.7763932 18.0745356 104 20 C97.73 20 91.46 20 85 20 C89 15 89 15 91.25 14.1875 C92.11625 14.0946875 92.11625 14.0946875 93 14 C93 13.34 93 12.68 93 12 C91.02 11.67 89.04 11.34 87 11 C86.34 12.32 85.68 13.64 85 15 C82.84622436 12.37801226 81.59927826 10.35595828 81 7 C80.34 7 79.68 7 79 7 Z " fill="#FDFDFC" transform="translate(0,0)"/>
<path d="M0 0 C2.36875356 1.21821612 3.78421235 2.22171235 5.6875 4.125 C4.0375 4.785 2.3875 5.445 0.6875 6.125 C0.6875 6.785 0.6875 7.445 0.6875 8.125 C-0.9625 8.455 -2.6125 8.785 -4.3125 9.125 C-4.6425 11.105 -4.9725 13.085 -5.3125 15.125 C-2.6725 15.125 -0.0325 15.125 2.6875 15.125 C3.3125 17.5 3.3125 17.5 3.6875 20.125 C3.0275 20.785 2.3675 21.445 1.6875 22.125 C1.28985737 24.11321313 0.94974651 26.11444339 0.6875 28.125 C1.3475 28.125 2.0075 28.125 2.6875 28.125 C3.079375 28.599375 3.47125 29.07375 3.875 29.5625 C6.55362359 31.87165826 9.24826032 31.80054343 12.6875 32.125 C13.0175 28.495 13.3475 24.865 13.6875 21.125 C13.0275 21.125 12.3675 21.125 11.6875 21.125 C11.6875 20.465 11.6875 19.805 11.6875 19.125 C10.3675 18.795 9.0475 18.465 7.6875 18.125 C7.6875 17.465 7.6875 16.805 7.6875 16.125 C14.21094244 15.37567115 20.63816847 14.96611204 27.203125 14.95703125 C28.49231842 14.95203865 28.49231842 14.95203865 29.80755615 14.94694519 C31.6057482 14.94192693 33.40394939 14.93953527 35.20214844 14.93969727 C37.94481559 14.93749412 40.68709033 14.91923925 43.4296875 14.90039062 C45.18749864 14.89745887 46.94531167 14.89547262 48.703125 14.89453125 C49.92204437 14.88375298 49.92204437 14.88375298 51.16558838 14.87275696 C52.31773834 14.8773719 52.31773834 14.8773719 53.49316406 14.88208008 C54.49382904 14.87994255 54.49382904 14.87994255 55.51470947 14.87776184 C57.6875 15.125 57.6875 15.125 63.6875 17.125 C63.6875 24.385 63.6875 31.645 63.6875 39.125 C62.6975 39.125 61.7075 39.125 60.6875 39.125 C60.3575 32.525 60.0275 25.925 59.6875 19.125 C47.1475 19.125 34.6075 19.125 21.6875 19.125 C21.3575 24.075 21.0275 29.025 20.6875 34.125 C17.12424406 36.50050396 15.7074787 35.99752425 11.62890625 35.3515625 C9.43091846 35.09505688 7.75877784 35.34827081 5.6875 36.125 C5.6875 36.785 5.6875 37.445 5.6875 38.125 C3.7075 38.62 3.7075 38.62 1.6875 39.125 C3.0075 39.785 4.3275 40.445 5.6875 41.125 C4.0375 41.125 2.3875 41.125 0.6875 41.125 C0.6875 41.785 0.6875 42.445 0.6875 43.125 C6.6275 42.63 6.6275 42.63 12.6875 42.125 C12.3575 43.775 12.0275 45.425 11.6875 47.125 C10.40875 47.08375 9.13 47.0425 7.8125 47 C5.66878508 46.88287127 5.66878508 46.88287127 3.6875 47.125 C3.0275 47.785 2.3675 48.445 1.6875 49.125 C4.6575 49.125 7.6275 49.125 10.6875 49.125 C10.76891272 55.45193152 10.45161796 59.95377782 6.125 64.8125 C5.0020688 65.93995004 3.86368786 67.05322569 2.6875 68.125 C1.6975 67.795 0.7075 67.465 -0.3125 67.125 C-0.6425 64.815 -0.9725 62.505 -1.3125 60.125 C-1.9725 60.125 -2.6325 60.125 -3.3125 60.125 C-3.68375 59.2175 -4.055 58.31 -4.4375 57.375 C-6.05103948 53.90501848 -6.05103948 53.90501848 -9.4375 52.5 C-12.3125 50.125 -12.3125 50.125 -12.921875 47.2109375 C-13.16375606 44.17319597 -13.3029188 41.17182239 -13.3125 38.125 C-12.714375 37.980625 -12.11625 37.83625 -11.5 37.6875 C-9.75099596 37.2377561 -8.02572977 36.69607659 -6.3125 36.125 C-6.41863836 33.67275306 -6.41863836 33.67275306 -7.3125 31.125 C-11.02907692 28.93877828 -15.0787558 28.62308755 -19.3125 28.125 C-17.67837557 26.41659719 -16.44343906 25.19046953 -14.3125 24.125 C-13.56498627 20.64245287 -13.56498627 20.64245287 -13.3125 17.125 C-13.6425 16.795 -13.9725 16.465 -14.3125 16.125 C-14.3125 17.115 -14.3125 18.105 -14.3125 19.125 C-19.5925 19.125 -24.8725 19.125 -30.3125 19.125 C-29.9825 17.145 -29.6525 15.165 -29.3125 13.125 C-28.3225 13.125 -27.3325 13.125 -26.3125 13.125 C-26.3125 13.785 -26.3125 14.445 -26.3125 15.125 C-25.3225 15.125 -24.3325 15.125 -23.3125 15.125 C-23.6425 13.805 -23.9725 12.485 -24.3125 11.125 C-23.3225 10.795 -22.3325 10.465 -21.3125 10.125 C-21.3125 11.775 -21.3125 13.425 -21.3125 15.125 C-20.3225 15.125 -19.3325 15.125 -18.3125 15.125 C-18.3125 14.465 -18.3125 13.805 -18.3125 13.125 C-16.6625 13.125 -15.0125 13.125 -13.3125 13.125 C-14.69275574 10.00774079 -14.69275574 10.00774079 -17.3125 7.125 C-21.75257933 5.756315 -25.87684824 5.82454755 -30.3125 7.125 C-30.3125 6.135 -30.3125 5.145 -30.3125 4.125 C-22.23866125 -3.68287701 -10.01916215 -4.26622388 0 0 Z " fill="#FDFAF9" transform="translate(46.3125,12.875)"/>
<path d="M0 0 C0.99 0.33 1.98 0.66 3 1 C3.1546875 2.175625 3.1546875 2.175625 3.3125 3.375 C3.77595022 6.33045181 3.77595022 6.33045181 7 8 C7.66 6.68 8.32 5.36 9 4 C11.475 4.495 11.475 4.495 14 5 C14 5.66 14 6.32 14 7 C13.236875 7.2475 12.47375 7.495 11.6875 7.75 C8.54079672 8.95624543 8.54079672 8.95624543 6 13 C12.27 13 18.54 13 25 13 C24.01 11.35 23.02 9.7 22 8 C22.639375 8.28875 23.27875 8.5775 23.9375 8.875 C27.88410292 10.3247725 31.8874607 11.15778062 36 12 C36.99 15.96 36.99 15.96 38 20 C38.99 20 39.98 20 41 20 C40.505 18.88625 40.505 18.88625 40 17.75 C39 15 39 15 39 11 C41.64 11 44.28 11 47 11 C47.09978121 14.49234244 46.77842938 17.59437148 46 21 C43.36 21 40.72 21 38 21 C38 21.66 38 22.32 38 23 C39.32 23 40.64 23 42 23 C42.99 25.475 42.99 25.475 44 28 C44.66 27.34 45.32 26.68 46 26 C47.65 26 49.3 26 51 26 C51 29.63 51 33.26 51 37 C54.96 37 58.92 37 63 37 C61.93006576 42.34967121 60.61104602 45.10924254 56.1875 48.3125 C52.94334673 49.33209103 50.38017919 49.35580834 47 49 C42.69967441 46.45889851 40.95655658 43.53097312 39 39 C38.34 39 37.68 39 37 39 C37.495 40.03125 37.99 41.0625 38.5 42.125 C39.97473902 45.52451578 40.27291106 48.27021549 40 52 C38.02 51.34 36.04 50.68 34 50 C33.67 51.65 33.34 53.3 33 55 C32.67 55 32.34 55 32 55 C32 43.78 32 32.56 32 21 C3.785 21.495 3.785 21.495 -25 22 C-25 22.66 -25 23.32 -25 24 C-23.68 24.33 -22.36 24.66 -21 25 C-21 25.66 -21 26.32 -21 27 C-20.34 27 -19.68 27 -19 27 C-17.9742741 31.41062136 -17.96315288 33.92630576 -20 38 C-26.625 38.25 -26.625 38.25 -30 36 C-30 35.34 -30 34.68 -30 34 C-30.66 34 -31.32 34 -32 34 C-32.125 31.125 -32.125 31.125 -32 28 C-31.34 27.34 -30.68 26.68 -30 26 C-30 24.68 -30 23.36 -30 22 C-32.64 21.67 -35.28 21.34 -38 21 C-38.04254356 19.00045254 -38.04080783 16.99958364 -38 15 C-36.02170928 13.02170928 -32.17672973 13.74496068 -29.46484375 13.68359375 C-28.71159317 13.66281265 -27.95834259 13.64203156 -27.18226624 13.62062073 C-24.7674401 13.55504575 -22.35250202 13.49620379 -19.9375 13.4375 C-18.30402471 13.3943223 -16.6705609 13.35070827 -15.03710938 13.30664062 C-11.02485536 13.19935638 -7.01248836 13.09811179 -3 13 C-3.99 12.01 -4.98 11.02 -6 10 C-5.34 10 -4.68 10 -4 10 C-4 9.01 -4 8.02 -4 7 C-3 6 -2 5 -1 4 C-0.28552357 1.89667109 -0.28552357 1.89667109 0 0 Z " fill="#FCEBEB" transform="translate(79,7)"/>
<path d="M0 0 C3.375 1.1875 3.375 1.1875 6 3 C6.875 5.6875 6.875 5.6875 7 8 C5.03533587 9.06775224 3.03144641 10.06553465 1 11 C0.34 10.67 -0.32 10.34 -1 10 C-0.62675298 14.09284661 -0.13503554 18.04328734 1 22 C3.88509913 24.42422186 3.88509913 24.42422186 7 26 C8.375 29.25 8.375 29.25 9 32 C9.66 32 10.32 32 11 32 C11.66 34.31 12.32 36.62 13 39 C16.95736624 37.68087792 18.9988546 35.56368358 21 32 C21.97869875 28.3648332 22.55469269 24.73526431 23 21 C20.03 21.33 17.06 21.66 14 22 C14 21.01 14 20.02 14 19 C17.3 19.33 20.6 19.66 24 20 C24.80660045 23.04715725 25.01332621 24.93470158 24.375 28.0625 C23.66789653 31.0269364 23.66789653 31.0269364 25.4765625 33.18359375 C25.97929688 33.78300781 26.48203125 34.38242188 27 35 C19.12285094 47.96210983 19.12285094 47.96210983 15 51 C11.48572445 51.08571404 10.30702156 50.27383004 7.6875 47.9375 C7.130625 47.298125 6.57375 46.65875 6 46 C6 48.31 6 50.62 6 53 C2.85694562 54.57152719 -0.491274 54.14318589 -3.9375 54.125 C-4.66646484 54.12886719 -5.39542969 54.13273437 -6.14648438 54.13671875 C-9.35857736 54.1308304 -11.9321444 54.02261853 -15 53 C-15 51.68 -15 50.36 -15 49 C-15.639375 48.855625 -16.27875 48.71125 -16.9375 48.5625 C-19 48 -19 48 -20 47 C-20.3015989 42.36956975 -20.12526476 37.8350984 -19.4375 33.25 C-18.81847635 30.04810322 -18.81847635 30.04810322 -19.625 27.125 C-20.2868713 21.60940581 -18.32861164 16.74380277 -15 12.375 C-14.34 11.59125 -13.68 10.8075 -13 10 C-11.99515117 7.66875071 -10.99477753 5.33556463 -10 3 C-7.45714865 -0.94141959 -4.40719281 -0.4481891 0 0 Z " fill="#DB1819" transform="translate(34,41)"/>
<path d="M0 0 C0.82290527 0.00202423 1.64581055 0.00404846 2.49365234 0.00613403 C3.33331543 0.00517731 4.17297852 0.00422058 5.03808594 0.00323486 C6.81689529 0.00255306 8.59570712 0.00440737 10.37451172 0.00857544 C13.10699011 0.01392371 15.83930411 0.00863048 18.57177734 0.00222778 C20.29573604 0.00288856 22.01969464 0.00416973 23.74365234 0.00613403 C24.56655762 0.0041098 25.38946289 0.00208557 26.23730469 0 C32.0037018 0.02399599 32.0037018 0.02399599 33.11865234 1.13894653 C33.20591457 2.91965899 33.22564276 4.70377793 33.21630859 6.48660278 C33.21381104 7.45863647 33.21131348 8.43067017 33.20874023 9.43215942 C33.19963623 10.67602417 33.19053223 11.91988892 33.18115234 13.20144653 C33.16052734 17.14082153 33.13990234 21.08019653 33.11865234 25.13894653 C22.55865234 25.13894653 11.99865234 25.13894653 1.11865234 25.13894653 C0.78865234 26.45894653 0.45865234 27.77894653 0.11865234 29.13894653 C-2.34506256 31.69391013 -3.54364597 32.11946374 -7.13134766 32.32644653 C-8.49259766 32.23363403 -8.49259766 32.23363403 -9.88134766 32.13894653 C-10.54134766 33.45894653 -11.20134766 34.77894653 -11.88134766 36.13894653 C-12.54134766 35.80894653 -13.20134766 35.47894653 -13.88134766 35.13894653 C-13.22134766 34.14894653 -12.56134766 33.15894653 -11.88134766 32.13894653 C-12.16687123 30.24227544 -12.16687123 30.24227544 -12.88134766 28.13894653 C-13.75634766 25.26394653 -13.75634766 25.26394653 -13.88134766 22.13894653 C-12.47476196 19.67321862 -10.95140504 18.16086305 -8.88134766 16.13894653 C-8.22134766 16.13894653 -7.56134766 16.13894653 -6.88134766 16.13894653 C-6.89294922 15.0677356 -6.90455078 13.99652466 -6.91650391 12.89285278 C-6.92588064 11.4957191 -6.93498097 10.09858355 -6.94384766 8.70144653 C-6.95641602 7.64087036 -6.95641602 7.64087036 -6.96923828 6.55886841 C-6.97788353 4.75201094 -6.93354777 2.94507051 -6.88134766 1.13894653 C-5.03858257 -0.70381855 -2.45171007 0.01020242 0 0 Z " fill="#FCEAEA" transform="translate(73.88134765625,30.861053466796875)"/>
<path d="M0 0 C13.09957511 0.24801261 13.09957511 0.24801261 16.08203125 3.23046875 C16.20703125 6.35546875 16.20703125 6.35546875 16.08203125 9.23046875 C17.40203125 9.56046875 18.72203125 9.89046875 20.08203125 10.23046875 C20.45328125 8.86921875 20.45328125 8.86921875 20.83203125 7.48046875 C22.13009326 4.10550752 23.30174966 2.48944754 26.08203125 0.23046875 C26.74203125 0.23046875 27.40203125 0.23046875 28.08203125 0.23046875 C28.57623974 7.64359616 28.57623974 7.64359616 26.08203125 10.60546875 C25.42203125 11.14171875 24.76203125 11.67796875 24.08203125 12.23046875 C24.08203125 12.89046875 24.08203125 13.55046875 24.08203125 14.23046875 C25.16484375 12.77640625 25.16484375 12.77640625 26.26953125 11.29296875 C28.21440718 8.93133369 28.87028475 8.29634544 31.89453125 7.35546875 C32.61640625 7.31421875 33.33828125 7.27296875 34.08203125 7.23046875 C33.60270655 11.54439101 32.33623275 13.39616422 29.08203125 16.23046875 C29.74203125 16.56046875 30.40203125 16.89046875 31.08203125 17.23046875 C31.08203125 17.89046875 31.08203125 18.55046875 31.08203125 19.23046875 C28.08203125 21.23046875 28.08203125 21.23046875 24.08203125 21.23046875 C24.08203125 21.89046875 24.08203125 22.55046875 24.08203125 23.23046875 C23.42203125 23.23046875 22.76203125 23.23046875 22.08203125 23.23046875 C21.67984375 21.55984375 21.67984375 21.55984375 21.26953125 19.85546875 C20.42394106 16.01205924 20.42394106 16.01205924 17.08203125 14.23046875 C17.08203125 13.24046875 17.08203125 12.25046875 17.08203125 11.23046875 C16.42203125 11.23046875 15.76203125 11.23046875 15.08203125 11.23046875 C15.57703125 13.70546875 15.57703125 13.70546875 16.08203125 16.23046875 C16.72140625 16.33359375 17.36078125 16.43671875 18.01953125 16.54296875 C18.70015625 16.76984375 19.38078125 16.99671875 20.08203125 17.23046875 C20.57703125 18.71546875 20.57703125 18.71546875 21.08203125 20.23046875 C18.77203125 20.23046875 16.46203125 20.23046875 14.08203125 20.23046875 C13.75203125 23.53046875 13.42203125 26.83046875 13.08203125 30.23046875 C9.76947799 30.25730311 6.45713942 30.27722655 3.14453125 30.29296875 C2.19900391 30.30134766 1.25347656 30.30972656 0.27929688 30.31835938 C-1.06938477 30.32319336 -1.06938477 30.32319336 -2.4453125 30.328125 C-3.69429321 30.33598022 -3.69429321 30.33598022 -4.96850586 30.34399414 C-6.91796875 30.23046875 -6.91796875 30.23046875 -7.91796875 29.23046875 C-7.82705275 26.52938371 -7.68056109 23.86116564 -7.48046875 21.16796875 C-7.42826172 20.40935547 -7.37605469 19.65074219 -7.32226562 18.86914062 C-7.1922104 16.98925153 -7.05568837 15.1098119 -6.91796875 13.23046875 C-11.2307526 13.36858797 -15.54310828 13.51724984 -19.85546875 13.66796875 C-21.08716797 13.70728516 -22.31886719 13.74660156 -23.58789062 13.78710938 C-25.34262695 13.84995117 -25.34262695 13.84995117 -27.1328125 13.9140625 C-28.75884399 13.96904907 -28.75884399 13.96904907 -30.41772461 14.02514648 C-32.85723175 13.9541114 -32.85723175 13.9541114 -33.91796875 15.23046875 C-32.59796875 15.56046875 -31.27796875 15.89046875 -29.91796875 16.23046875 C-29.91796875 20.19046875 -29.91796875 24.15046875 -29.91796875 28.23046875 C-29.25796875 28.23046875 -28.59796875 28.23046875 -27.91796875 28.23046875 C-27.91796875 25.59046875 -27.91796875 22.95046875 -27.91796875 20.23046875 C-26.26796875 20.23046875 -24.61796875 20.23046875 -22.91796875 20.23046875 C-22.91796875 22.87046875 -22.91796875 25.51046875 -22.91796875 28.23046875 C-22.25796875 28.23046875 -21.59796875 28.23046875 -20.91796875 28.23046875 C-20.91796875 23.94046875 -20.91796875 19.65046875 -20.91796875 15.23046875 C-19.26796875 15.23046875 -17.61796875 15.23046875 -15.91796875 15.23046875 C-15.91796875 19.85046875 -15.91796875 24.47046875 -15.91796875 29.23046875 C-27.46796875 29.23046875 -39.01796875 29.23046875 -50.91796875 29.23046875 C-49.92796875 28.90046875 -48.93796875 28.57046875 -47.91796875 28.23046875 C-47.91796875 26.91046875 -47.91796875 25.59046875 -47.91796875 24.23046875 C-46.59796875 24.23046875 -45.27796875 24.23046875 -43.91796875 24.23046875 C-43.91796875 25.55046875 -43.91796875 26.87046875 -43.91796875 28.23046875 C-43.25796875 28.23046875 -42.59796875 28.23046875 -41.91796875 28.23046875 C-41.93859375 27.26109375 -41.95921875 26.29171875 -41.98046875 25.29296875 C-41.91796875 22.23046875 -41.91796875 22.23046875 -40.91796875 21.23046875 C-39.2517976 21.18983043 -37.5840878 21.18774775 -35.91796875 21.23046875 C-36.24796875 18.92046875 -36.57796875 16.61046875 -36.91796875 14.23046875 C-39.88796875 13.73546875 -39.88796875 13.73546875 -42.91796875 13.23046875 C-42.91796875 12.90046875 -42.91796875 12.57046875 -42.91796875 12.23046875 C-30.70796875 11.90046875 -18.49796875 11.57046875 -5.91796875 11.23046875 C-5.25796875 8.26046875 -4.59796875 5.29046875 -3.91796875 2.23046875 C-1.91796875 0.23046875 -1.91796875 0.23046875 0 0 Z " fill="#B23131" transform="translate(110.91796875,62.76953125)"/>
<path d="M0 0 C7.87629592 3.82602987 14.62452959 7.35111505 18.13671875 15.703125 C19.15537896 19.59339294 19.30263887 23.25926021 19.25 27.25 C19.23767334 28.37172607 19.23767334 28.37172607 19.22509766 29.51611328 C18.98027515 41.68616118 18.98027515 41.68616118 17 46 C14.0625 47.875 14.0625 47.875 11 49 C8.79720924 51.43880405 7.38002029 54.0276486 6 57 C5.75 54.25 5.75 54.25 6 51 C6.639375 50.38125 7.27875 49.7625 7.9375 49.125 C10.98789468 45.98216912 10.71305655 43.3041517 11 39 C8.47014472 39.32386813 8.47014472 39.32386813 6 41 C4.92998438 43.94119871 4.42656082 46.90584243 4 50 C2.35 49.34 0.7 48.68 -1 48 C-1.33 45.69 -1.66 43.38 -2 41 C-1.01 40.505 -1.01 40.505 0 40 C-0.11341534 37.59122743 -0.11341534 37.59122743 -1 35 C-3.39224959 33.26461808 -3.39224959 33.26461808 -6 32 C-6.66 31.34 -7.32 30.68 -8 30 C-8.66 29.67 -9.32 29.34 -10 29 C-10.73075648 26.6859378 -11.40138258 24.35171131 -12 22 C-11.34 22 -10.68 22 -10 22 C-10 20.35 -10 18.7 -10 17 C-9.67 17 -9.34 17 -9 17 C-8.91363281 17.59167969 -8.82726562 18.18335937 -8.73828125 18.79296875 C-8.00563414 22.91326855 -7.28011046 25.60784536 -4.8125 29.0625 C-1.17359637 31.56930028 0.65659156 31.68580133 5 31 C9.02903564 29.06296363 11.11897137 27.29543043 12.875 23.25 C13.24625 22.1775 13.6175 21.105 14 20 C10.04 20 6.08 20 2 20 C2 16.37 2 12.74 2 9 C-2.07964281 10.30155006 -2.07964281 10.30155006 -6 12 C-6.33 10.02 -6.66 8.04 -7 6 C-8.32 6 -9.64 6 -11 6 C-11 5.34 -11 4.68 -11 4 C-8.02148438 3.75585938 -8.02148438 3.75585938 -5.04296875 3.51171875 C-2.58488721 2.89602337 -1.61863701 1.90457919 0 0 Z " fill="#FCE6E6" transform="translate(128,24)"/>
<path d="M0 0 C2.36875356 1.21821612 3.78421235 2.22171235 5.6875 4.125 C4.0375 4.785 2.3875 5.445 0.6875 6.125 C0.6875 6.785 0.6875 7.445 0.6875 8.125 C-0.9625 8.455 -2.6125 8.785 -4.3125 9.125 C-4.6425 16.055 -4.9725 22.985 -5.3125 30.125 C-6.3025 30.62 -6.3025 30.62 -7.3125 31.125 C-8.97916667 30.45833333 -10.64583333 29.79166667 -12.3125 29.125 C-14.63847511 28.7436926 -16.97162158 28.40039746 -19.3125 28.125 C-17.67837557 26.41659719 -16.44343906 25.19046953 -14.3125 24.125 C-13.56498627 20.64245287 -13.56498627 20.64245287 -13.3125 17.125 C-13.6425 16.795 -13.9725 16.465 -14.3125 16.125 C-14.3125 17.115 -14.3125 18.105 -14.3125 19.125 C-19.5925 19.125 -24.8725 19.125 -30.3125 19.125 C-29.9825 17.145 -29.6525 15.165 -29.3125 13.125 C-28.3225 13.125 -27.3325 13.125 -26.3125 13.125 C-26.3125 13.785 -26.3125 14.445 -26.3125 15.125 C-25.3225 15.125 -24.3325 15.125 -23.3125 15.125 C-23.6425 13.805 -23.9725 12.485 -24.3125 11.125 C-23.3225 10.795 -22.3325 10.465 -21.3125 10.125 C-21.3125 11.775 -21.3125 13.425 -21.3125 15.125 C-20.3225 15.125 -19.3325 15.125 -18.3125 15.125 C-18.3125 14.465 -18.3125 13.805 -18.3125 13.125 C-16.6625 13.125 -15.0125 13.125 -13.3125 13.125 C-14.69275574 10.00774079 -14.69275574 10.00774079 -17.3125 7.125 C-21.75257933 5.756315 -25.87684824 5.82454755 -30.3125 7.125 C-30.3125 6.135 -30.3125 5.145 -30.3125 4.125 C-22.23866125 -3.68287701 -10.01916215 -4.26622388 0 0 Z " fill="#FBEAE9" transform="translate(46.3125,12.875)"/>
<path d="M0 0 C2.46451984 1.13966236 3.91505545 2.53027199 5.77734375 4.5 C6.3909375 5.14066406 7.00453125 5.78132813 7.63671875 6.44140625 C8.095625 6.93511719 8.55453125 7.42882813 9.02734375 7.9375 C9.60484375 7.6075 10.18234375 7.2775 10.77734375 6.9375 C13.02734375 5.9375 13.02734375 5.9375 17.02734375 5.9375 C19.38671875 7.87109375 19.38671875 7.87109375 21.77734375 10.375 C22.5765625 11.19871094 23.37578125 12.02242187 24.19921875 12.87109375 C26.02734375 14.9375 26.02734375 14.9375 26.02734375 15.9375 C15.46734375 15.9375 4.90734375 15.9375 -5.97265625 15.9375 C-6.30265625 17.2575 -6.63265625 18.5775 -6.97265625 19.9375 C-9.43637115 22.4924636 -10.63495456 22.91801721 -14.22265625 23.125 C-15.58390625 23.0321875 -15.58390625 23.0321875 -16.97265625 22.9375 C-17.63265625 24.2575 -18.29265625 25.5775 -18.97265625 26.9375 C-19.63265625 26.6075 -20.29265625 26.2775 -20.97265625 25.9375 C-19.98265625 24.4525 -19.98265625 24.4525 -18.97265625 22.9375 C-19.25817982 21.04082891 -19.25817982 21.04082891 -19.97265625 18.9375 C-20.84765625 16.0625 -20.84765625 16.0625 -20.97265625 12.9375 C-18.97265625 9.5625 -18.97265625 9.5625 -15.97265625 6.9375 C-14.85890625 6.958125 -13.74515625 6.97875 -12.59765625 7 C-9.02864517 7.31990105 -9.02864517 7.31990105 -7.109375 5.3671875 C-5.91933298 4.06756988 -4.76314407 2.73587769 -3.6484375 1.37109375 C-1.97265625 -0.0625 -1.97265625 -0.0625 0 0 Z " fill="#DB2223" transform="translate(80.97265625,40.0625)"/>
<path d="M0 0 C1.32 0 2.64 0 4 0 C4.16435547 1.03060547 4.16435547 1.03060547 4.33203125 2.08203125 C4.49058594 2.98308594 4.64914063 3.88414063 4.8125 4.8125 C5.03873047 6.15248047 5.03873047 6.15248047 5.26953125 7.51953125 C6.09633282 10.32711948 6.53827181 11.41448015 9 13 C12.20138068 13.3636162 12.20138068 13.3636162 15.6875 13.1875 C16.86699219 13.16042969 18.04648437 13.13335937 19.26171875 13.10546875 C20.16535156 13.07066406 21.06898437 13.03585938 22 13 C21.2575 13.721875 20.515 14.44375 19.75 15.1875 C15.14778426 19.89431155 12.57984911 23.94296297 10 30 C9.484375 30.474375 8.96875 30.94875 8.4375 31.4375 C5.96807687 34.12165558 5.41990549 37.48020399 5 41 C5.11627206 42.4216902 5.28464139 43.83991387 5.5 45.25 C6.37517252 50.9939484 5.15372042 56.36488623 4 62 C3.67 62 3.34 62 3 62 C2.87625 61.030625 2.7525 60.06125 2.625 59.0625 C2.41875 58.051875 2.2125 57.04125 2 56 C1.34 55.67 0.68 55.34 0 55 C0 56.98 0 58.96 0 61 C-3.21835544 56.17246684 -3.71201327 52.75158769 -3 47 C-2.09512378 44.92155069 -1.01619353 43.02828166 0.109375 41.0625 C1.65919434 37.47344468 1.31926692 33.83120302 1 30 C0.34 29.67 -0.32 29.34 -1 29 C-2.60227952 19.54655084 -3.47513162 9.05182504 0 0 Z " fill="#FBEBEA" transform="translate(10,24)"/>
<path d="M0 0 C3.375 1.1875 3.375 1.1875 6 3 C6.875 5.6875 6.875 5.6875 7 8 C5.03533587 9.06775224 3.03144641 10.06553465 1 11 C0.34 10.67 -0.32 10.34 -1 10 C-0.7525 10.7734375 -0.7525 10.7734375 -0.5 11.5625 C0.16025316 14.78123414 0.17875792 17.72277139 0 21 C-0.66 21.99 -1.32 22.98 -2 24 C-2.66 24 -3.32 24 -4 24 C-4.2165625 25.7015625 -4.2165625 25.7015625 -4.4375 27.4375 C-5 31 -5 31 -6 32 C-12.25178564 32.52981234 -15.1093846 31.91249232 -20 28 C-18.94764383 20.8088995 -17.65442115 15.64172261 -13 10 C-11.99515117 7.66875071 -10.99477753 5.33556463 -10 3 C-7.45714865 -0.94141959 -4.40719281 -0.4481891 0 0 Z " fill="#671410" transform="translate(34,41)"/>
<path d="M0 0 C3.3 0.33 6.6 0.66 10 1 C10.80660045 4.04715725 11.01332621 5.93470158 10.375 9.0625 C9.66789653 12.0269364 9.66789653 12.0269364 11.4765625 14.18359375 C11.97929688 14.78300781 12.48203125 15.38242188 13 16 C5.12285094 28.96210983 5.12285094 28.96210983 1 32 C-2.51427555 32.08571404 -3.69297844 31.27383004 -6.3125 28.9375 C-6.869375 28.298125 -7.42625 27.65875 -8 27 C-8 29.31 -8 31.62 -8 34 C-11.14305438 35.57152719 -14.491274 35.14318589 -17.9375 35.125 C-18.66646484 35.12886719 -19.39542969 35.13273437 -20.14648438 35.13671875 C-23.35857736 35.1308304 -25.9321444 35.02261853 -29 34 C-29 32.68 -29 31.36 -29 30 C-29.639375 29.855625 -30.27875 29.71125 -30.9375 29.5625 C-33 29 -33 29 -34 28 C-34.59704584 21.12703048 -33.58931056 14.66942825 -32 8 C-31.505 8.66 -31.01 9.32 -30.5 10 C-26.89659788 12.8827217 -24.53014958 12.30200997 -20 12 C-19.7525 10.906875 -19.505 9.81375 -19.25 8.6875 C-17.97997149 4.94091591 -17.34243648 3.89404734 -14 2 C-13.34 3.32 -12.68 4.64 -12 6 C-12.99 6.66 -13.98 7.32 -15 8 C-15 8.99 -15 9.98 -15 11 C-17.24059341 13.52970223 -18.92206194 14.88283282 -22.3359375 15.25390625 C-24.57075205 15.25038131 -26.77243512 15.17471097 -29 15 C-28.83628906 15.68449219 -28.67257813 16.36898437 -28.50390625 17.07421875 C-27.595685 22.34753438 -27.9460773 27.66165292 -28 33 C-23.38 33 -18.76 33 -14 33 C-14.185625 32.030625 -14.37125 31.06125 -14.5625 30.0625 C-15.21856047 25.61586794 -14.65134866 21.41915017 -14 17 C-13.01 17.33 -12.02 17.66 -11 18 C-9.8125 21.0625 -9.8125 21.0625 -9 24 C-8.01 24 -7.02 24 -6 24 C-5.67 24.99 -5.34 25.98 -5 27 C-2.69 26.34 -0.38 25.68 2 25 C1.505 26.485 1.505 26.485 1 28 C1.66 28 2.32 28 3 28 C2.80528889 26.05000871 2.80528889 26.05000871 2 24 C0.0162233 22.71563266 0.0162233 22.71563266 -2 22 C-1 20 -1 20 2 19 C7.35658486 14.03536037 8.15288735 9.10563146 9 2 C4.545 2.495 4.545 2.495 0 3 C0 2.01 0 1.02 0 0 Z " fill="#C22626" transform="translate(48,60)"/>
<path d="M0 0 C0.66 0.66 1.32 1.32 2 2 C1.01 3.485 1.01 3.485 0 5 C0.3015763 7.83481723 0.84254502 10.44890756 1.625 13.1875 C2 15 2 15 1 18 C1.66 17.01 2.32 16.02 3 15 C5.56640625 14.453125 5.56640625 14.453125 8.5625 14.25 C9.55378906 14.17265625 10.54507813 14.0953125 11.56640625 14.015625 C12.36949219 14.01046875 13.17257813 14.0053125 14 14 C14.33 14.33 14.66 14.66 15 15 C16.63256758 15.15714654 18.27135338 15.25085414 19.91015625 15.31640625 C21.39418945 15.37924805 21.39418945 15.37924805 22.90820312 15.44335938 C23.94912109 15.48267578 24.99003906 15.52199219 26.0625 15.5625 C27.10728516 15.60568359 28.15207031 15.64886719 29.22851562 15.69335938 C31.81886884 15.79981225 34.40932186 15.9018276 37 16 C37 16.66 37 17.32 37 18 C33.04 18.495 33.04 18.495 29 19 C29.495 21.475 29.495 21.475 30 24 C26.7 24 23.4 24 20 24 C19.34 22.68 18.68 21.36 18 20 C17.71125 20.61875 17.4225 21.2375 17.125 21.875 C16 24 16 24 14 26 C11.3203125 26.265625 11.3203125 26.265625 8.125 26.25 C6.55105469 26.25773437 6.55105469 26.25773437 4.9453125 26.265625 C1.71109809 25.97394519 -0.66990141 25.33009859 -3 23 C-3.07179964 21.48071962 -3.08392007 19.95832518 -3.0625 18.4375 C-3.05347656 17.61121094 -3.04445313 16.78492187 -3.03515625 15.93359375 C-3.02355469 15.29550781 -3.01195312 14.65742187 -3 14 C-5.64 13.34 -8.28 12.68 -11 12 C-8.33333333 11.33333333 -5.66666667 10.66666667 -3 10 C-3 9.34 -3 8.68 -3 8 C-6.63 8 -10.26 8 -14 8 C-14 6.33333333 -14 4.66666667 -14 3 C-12.35 3 -10.7 3 -9 3 C-9 2.34 -9 1.68 -9 1 C-10.65 1 -12.3 1 -14 1 C-14 0.67 -14 0.34 -14 0 C-4.17431193 -1.39143731 -4.17431193 -1.39143731 0 0 Z " fill="#FDF6F6" transform="translate(61,48)"/>
<path d="M0 0 C1.875 2.4375 1.875 2.4375 1.875 5.4375 C3.855 5.7675 5.835 6.0975 7.875 6.4375 C7.875 6.7675 7.875 7.0975 7.875 7.4375 C5.565 7.4375 3.255 7.4375 0.875 7.4375 C1.37 8.55125 1.37 8.55125 1.875 9.6875 C2.875 12.4375 2.875 12.4375 2.875 16.4375 C1.885 16.4375 0.895 16.4375 -0.125 16.4375 C-1.88962683 13.34940305 -2.125 12.20437864 -2.125 8.4375 C-3.671875 8.5303125 -3.671875 8.5303125 -5.25 8.625 C-9.35968973 8.42614405 -11.61382496 7.49282197 -15.125 5.4375 C-15.125 6.0975 -15.125 6.7575 -15.125 7.4375 C-14.135 7.7675 -13.145 8.0975 -12.125 8.4375 C-12.125 9.0975 -12.125 9.7575 -12.125 10.4375 C-20.045 10.4375 -27.965 10.4375 -36.125 10.4375 C-34.805 9.7775 -33.485 9.1175 -32.125 8.4375 C-31.465 7.57125 -30.805 6.705 -30.125 5.8125 C-29.465 5.02875 -28.805 4.245 -28.125 3.4375 C-26.805 3.4375 -25.485 3.4375 -24.125 3.4375 C-24.125 2.7775 -24.125 2.1175 -24.125 1.4375 C-25.775 1.4375 -27.425 1.4375 -29.125 1.4375 C-29.455 0.7775 -29.785 0.1175 -30.125 -0.5625 C-19.98464117 -7.1757775 -9.5415048 -8.81581288 0 0 Z " fill="#FCE9E9" transform="translate(117.125,10.5625)"/>
<path d="M0 0 C0.66 0 1.32 0 2 0 C2 0.99 2 1.98 2 3 C2.639375 3.309375 3.27875 3.61875 3.9375 3.9375 C6 5 6 5 7 6 C7.04080783 7.99958364 7.04254356 10.00045254 7 12 C5.68 12 4.36 12 3 12 C3 14.31 3 16.62 3 19 C-1.62473691 20.28024966 -6.22792741 20.47049289 -11 20.75 C-12.35351562 20.85248047 -12.35351562 20.85248047 -13.734375 20.95703125 C-14.60578125 21.00730469 -15.4771875 21.05757812 -16.375 21.109375 C-17.16648438 21.16061523 -17.95796875 21.21185547 -18.7734375 21.26464844 C-21.5745285 20.93171174 -22.90392547 19.82927966 -25 18 C-25.53109375 18.33773437 -26.0621875 18.67546875 -26.609375 19.0234375 C-29.71992048 20.29408516 -31.92702015 19.98619346 -35.25 19.625 C-36.32765625 19.51414062 -37.4053125 19.40328125 -38.515625 19.2890625 C-39.33546875 19.19367188 -40.1553125 19.09828125 -41 19 C-41 18.67 -41 18.34 -41 18 C-37.7 18 -34.4 18 -31 18 C-31 13.38 -31 8.76 -31 4 C-32.65 4 -34.3 4 -36 4 C-36 8.29 -36 12.58 -36 17 C-36.66 17 -37.32 17 -38 17 C-38 14.36 -38 11.72 -38 9 C-39.65 9 -41.3 9 -43 9 C-43 11.64 -43 14.28 -43 17 C-43.66 17 -44.32 17 -45 17 C-45 13.04 -45 9.08 -45 5 C-46.65 5 -48.3 5 -50 5 C-49.34 4.01 -48.68 3.02 -48 2 C-45.38623047 1.65942383 -45.38623047 1.65942383 -42.1171875 1.70703125 C-40.95058594 1.71669922 -39.78398438 1.72636719 -38.58203125 1.73632812 C-37.35871094 1.76146484 -36.13539062 1.78660156 -34.875 1.8125 C-33.64394531 1.82603516 -32.41289063 1.83957031 -31.14453125 1.85351562 C-28.09616918 1.8889617 -25.04803091 1.94276993 -22 2 C-22 7.28 -22 12.56 -22 18 C-15.4 18.33 -8.8 18.66 -2 19 C-2 16.69 -2 14.38 -2 12 C-1.67 11.01 -1.34 10.02 -1 9 C1.31 9 3.62 9 6 9 C4.27773504 5.75150023 4.27773504 5.75150023 1 5 C0.67 5.99 0.34 6.98 0 8 C0 5.36 0 2.72 0 0 Z " fill="#FCE4E4" transform="translate(126,74)"/>
<path d="M0 0 C23.1 0 46.2 0 70 0 C70 1.65 70 3.3 70 5 C46.9 5 23.8 5 0 5 C0 3.35 0 1.7 0 0 Z " fill="#C51617" transform="translate(41,22)"/>
<path d="M0 0 C1.98362069 2.91708924 1.9876191 4.12380904 1.625 7.75 C1.41875 8.8225 1.2125 9.895 1 11 C3.31 11 5.62 11 8 11 C8 11.66 8 12.32 8 13 C10.97 13 13.94 13 17 13 C17.08141272 19.32693152 16.76411796 23.82877782 12.4375 28.6875 C11.3145688 29.81495004 10.17618786 30.92822569 9 32 C8.01 31.67 7.02 31.34 6 31 C5.67 28.69 5.34 26.38 5 24 C4.34 24 3.68 24 3 24 C2.62875 23.0925 2.2575 22.185 1.875 21.25 C0.26146052 17.78001848 0.26146052 17.78001848 -3.125 16.375 C-6 14 -6 14 -6.609375 11.0859375 C-6.85125606 8.04819597 -6.9904188 5.04682239 -7 2 C-6.401875 1.855625 -5.80375 1.71125 -5.1875 1.5625 C-3.43849596 1.1127561 -1.71322977 0.57107659 0 0 Z " fill="#F5EBE9" transform="translate(40,49)"/>
<path d="M0 0 C0 3.63 0 7.26 0 11 C3.96 11 7.92 11 12 11 C10.93006576 16.34967121 9.61104602 19.10924254 5.1875 22.3125 C1.94334673 23.33209103 -0.61982081 23.35580834 -4 23 C-7.5476217 20.79259094 -9.40071227 18.8131489 -11 15 C-11.73343219 11.12127209 -11.93194197 7.53037963 -9.83203125 4.08203125 C-6.35312626 0.31694385 -5.5298667 0 0 0 Z " fill="#D72B2D" transform="translate(130,33)"/>
<path d="M0 0 C4.33333333 0 8.66666667 0 13 0 C13 0.66 13 1.32 13 2 C13.66 2 14.32 2 15 2 C15.33 1.34 15.66 0.68 16 0 C16 3.63 16 7.26 16 11 C14.02 11.99 14.02 11.99 12 13 C11 12 11 12 10.9375 9.4375 C10.958125 8.633125 10.97875 7.82875 11 7 C9.35 7 7.7 7 6 7 C5.67 8.65 5.34 10.3 5 12 C4.34 12 3.68 12 3 12 C3 12.99 3 13.98 3 15 C5.31 15.33 7.62 15.66 10 16 C10 16.66 10 17.32 10 18 C9.34 18.33 8.68 18.66 8 19 C9.65 19 11.3 19 13 19 C13 21.31 13 23.62 13 26 C7.72 26 2.44 26 -3 26 C-2.47196106 17.19935096 -1.63432435 8.6635058 0 0 Z " fill="#FCEDEC" transform="translate(108,65)"/>
<path d="M0 0 C2.5625 2.4375 2.5625 2.4375 4 5 C4 5.66 4 6.32 4 7 C2.35 7 0.7 7 -1 7 C-1 7.66 -1 8.32 -1 9 C-1.99 9 -2.98 9 -4 9 C-4 7.35 -4 5.7 -4 4 C-4.99 4.495 -4.99 4.495 -6 5 C-6 6.32 -6 7.64 -6 9 C-6.99 9 -7.98 9 -9 9 C-9 8.34 -9 7.68 -9 7 C-9.99 7 -10.98 7 -12 7 C-12.33 8.98 -12.66 10.96 -13 13 C-12.505 12.835 -12.01 12.67 -11.5 12.5 C-6.74340765 11.54868153 -1.64031687 11.45322771 3 13 C3 12.01 3 11.02 3 10 C3.66 10.33 4.32 10.66 5 11 C4.67 13.31 4.34 15.62 4 18 C-0.57443077 19.18049826 -5.32598584 19.87056683 -10 19 C-13.22821371 16.3647235 -14.73635815 14.93568621 -15.296875 10.8203125 C-15.3125 8.625 -15.3125 8.625 -15 5 C-15.99 4.67 -16.98 4.34 -18 4 C-16.38892962 1.2253788 -15.48587494 0.15038986 -12.375 -0.8125 C-8.13532627 -1.04803743 -4.11618761 -1.1637798 0 0 Z " fill="#FBEFEE" transform="translate(29,19)"/>
<path d="M0 0 C23.1 0 46.2 0 70 0 C70 0.33 70 0.66 70 1 C41.785 1.495 41.785 1.495 13 2 C13 2.66 13 3.32 13 4 C14.32 4.33 15.64 4.66 17 5 C17 5.66 17 6.32 17 7 C17.66 7 18.32 7 19 7 C20.0257259 11.41062136 20.03684712 13.92630576 18 18 C11.375 18.25 11.375 18.25 8 16 C8 15.34 8 14.68 8 14 C7.34 14 6.68 14 6 14 C5.875 11.125 5.875 11.125 6 8 C6.66 7.34 7.32 6.68 8 6 C8 4.68 8 3.36 8 2 C5.36 1.67 2.72 1.34 0 1 C0 0.67 0 0.34 0 0 Z " fill="#FDB0B0" transform="translate(41,27)"/>
<path d="M0 0 C0.66 0 1.32 0 2 0 C2.20625 0.804375 2.4125 1.60875 2.625 2.4375 C3.305625 3.7059375 3.305625 3.7059375 4 5 C7.05272465 5.89830839 7.05272465 5.89830839 10 6 C10 7.65 10 9.3 10 11 C9.505 9.02 9.505 9.02 9 7 C7.68 7 6.36 7 5 7 C5 8.32 5 9.64 5 11 C11.93 11.33 18.86 11.66 26 12 C26 12.33 26 12.66 26 13 C25.2479126 12.99476318 24.4958252 12.98952637 23.72094727 12.98413086 C20.33480658 12.96342773 16.94867916 12.95036123 13.5625 12.9375 C12.37849609 12.92912109 11.19449219 12.92074219 9.97460938 12.91210938 C8.84990234 12.90888672 7.72519531 12.90566406 6.56640625 12.90234375 C5.52427979 12.89710693 4.48215332 12.89187012 3.40844727 12.88647461 C1.04871253 12.72694444 1.04871253 12.72694444 0 14 C-1.66014616 14.36442233 -3.32706064 14.69972883 -5 15 C-5 15.33 -5 15.66 -5 16 C-13.91 16 -22.82 16 -32 16 C-32 15.67 -32 15.34 -32 15 C-27.38 14.67 -22.76 14.34 -18 14 C-18.33 11.36 -18.66 8.72 -19 6 C-18.113125 6.845625 -17.22625 7.69125 -16.3125 8.5625 C-14.14423424 10.33468911 -13.34343035 10.96565696 -10.5 11.25 C-5.73082888 8.86541444 -2.90044805 4.35067207 0 0 Z " fill="#FCE3E2" transform="translate(58,80)"/>
<path d="M0 0 C3.3 0.33 6.6 0.66 10 1 C10.80660045 4.04715725 11.01332621 5.93470158 10.375 9.0625 C9.66789653 12.0269364 9.66789653 12.0269364 11.4765625 14.18359375 C11.97929688 14.78300781 12.48203125 15.38242188 13 16 C5.12285094 28.96210983 5.12285094 28.96210983 1 32 C-1.5 32.1875 -1.5 32.1875 -4 31 C-5.89571838 29.10947536 -7.39126012 27.16030784 -9 25 C-8.34 24.34 -7.68 23.68 -7 23 C-6.34 24.32 -5.68 25.64 -5 27 C-2.69 26.34 -0.38 25.68 2 25 C1.67 25.99 1.34 26.98 1 28 C1.66 28 2.32 28 3 28 C2.80528889 26.05000871 2.80528889 26.05000871 2 24 C0.0162233 22.71563266 0.0162233 22.71563266 -2 22 C-1 20 -1 20 2 19 C7.35658486 14.03536037 8.15288735 9.10563146 9 2 C4.545 2.495 4.545 2.495 0 3 C0 2.01 0 1.02 0 0 Z " fill="#CE2124" transform="translate(48,60)"/>
<path d="M0 0 C0.99 0.33 1.98 0.66 3 1 C3.1546875 2.175625 3.1546875 2.175625 3.3125 3.375 C3.77595022 6.33045181 3.77595022 6.33045181 7 8 C7.66 6.68 8.32 5.36 9 4 C11.475 4.495 11.475 4.495 14 5 C14 5.66 14 6.32 14 7 C13.236875 7.2475 12.47375 7.495 11.6875 7.75 C8.54079672 8.95624543 8.54079672 8.95624543 6 13 C14.25 13.33 22.5 13.66 31 14 C31 14.33 31 14.66 31 15 C8.56 15 -13.88 15 -37 15 C-37 14.67 -37 14.34 -37 14 C-25.78 13.67 -14.56 13.34 -3 13 C-3.99 12.01 -4.98 11.02 -6 10 C-5.34 10 -4.68 10 -4 10 C-4 9.01 -4 8.02 -4 7 C-3 6 -2 5 -1 4 C-0.28552357 1.89667109 -0.28552357 1.89667109 0 0 Z " fill="#E3A3A3" transform="translate(79,7)"/>
<path d="M0 0 C1.65 0 3.3 0 5 0 C5 4.62 5 9.24 5 14 C-0.94 14 -6.88 14 -13 14 C-13 10.04 -13 6.08 -13 2 C-11.68 2 -10.36 2 -9 2 C-9 5.63 -9 9.26 -9 13 C-8.34 13 -7.68 13 -7 13 C-7 10.36 -7 7.72 -7 5 C-5.35 5 -3.7 5 -2 5 C-2 7.64 -2 10.28 -2 13 C-1.34 13 -0.68 13 0 13 C0 8.71 0 4.42 0 0 Z " fill="#CC5657" transform="translate(90,78)"/>
<path d="M0 0 C2.01464008 0.01416267 4.02720045 0.16353846 6.03515625 0.328125 C6.15890625 1.4625 6.28265625 2.596875 6.41015625 3.765625 C6.61640625 4.94125 6.82265625 6.116875 7.03515625 7.328125 C7.69515625 7.658125 8.35515625 7.988125 9.03515625 8.328125 C8.04515625 8.328125 7.05515625 8.328125 6.03515625 8.328125 C5.54015625 5.853125 5.54015625 5.853125 5.03515625 3.328125 C4.37515625 3.328125 3.71515625 3.328125 3.03515625 3.328125 C2.70515625 4.978125 2.37515625 6.628125 2.03515625 8.328125 C1.04515625 8.658125 0.05515625 8.988125 -0.96484375 9.328125 C-1.96962412 11.1803617 -1.96962412 11.1803617 -1.96484375 13.328125 C-0.97484375 14.318125 0.01515625 15.308125 1.03515625 16.328125 C-8.86484375 16.328125 -18.76484375 16.328125 -28.96484375 16.328125 C-28.96484375 15.668125 -28.96484375 15.008125 -28.96484375 14.328125 C-24.76808121 12.66893981 -22.32694109 12.23760067 -17.96484375 13.328125 C-17.30484375 12.998125 -16.64484375 12.668125 -15.96484375 12.328125 C-15.96484375 12.988125 -15.96484375 13.648125 -15.96484375 14.328125 C-10.02484375 13.833125 -10.02484375 13.833125 -3.96484375 13.328125 C-3.96484375 11.348125 -3.96484375 9.368125 -3.96484375 7.328125 C-5.61484375 7.658125 -7.26484375 7.988125 -8.96484375 8.328125 C-8.96484375 7.668125 -8.96484375 7.008125 -8.96484375 6.328125 C-8.36671875 6.26625 -7.76859375 6.204375 -7.15234375 6.140625 C-4.68990286 5.51222011 -4.68990286 5.51222011 -3.71484375 2.765625 C-1.96484375 0.328125 -1.96484375 0.328125 0 0 Z " fill="#FBE9E8" transform="translate(75.96484375,4.671875)"/>
<path d="M0 0 C0.49420849 7.41312741 0.49420849 7.41312741 -2 10.375 C-2.66 10.91125 -3.32 11.4475 -4 12 C-4 12.66 -4 13.32 -4 14 C-3.278125 13.030625 -2.55625 12.06125 -1.8125 11.0625 C0.13237593 8.70086494 0.7882535 8.06587669 3.8125 7.125 C4.8953125 7.063125 4.8953125 7.063125 6 7 C5.5206753 11.31392226 4.2542015 13.16569547 1 16 C1.66 16.33 2.32 16.66 3 17 C3 17.66 3 18.32 3 19 C0 21 0 21 -4 21 C-4 21.66 -4 22.32 -4 23 C-4.66 23 -5.32 23 -6 23 C-7.93785317 16.84446641 -8.71558617 11.33029579 -7 5 C-3.1 0 -3.1 0 0 0 Z " fill="#D77D7B" transform="translate(139,63)"/>
<path d="M0 0 C4.29 0 8.58 0 13 0 C12.90035444 7.97164511 12.16508647 11.94491318 6.49609375 17.63671875 C5.75552734 18.31154297 5.75552734 18.31154297 5 19 C4.01 18.67 3.02 18.34 2 18 C0.7741561 15.44520383 0.20523978 12.82204702 0 10 C1.375 8.1875 1.375 8.1875 3 7 C3 6.01 3 5.02 3 4 C2.01 3.67 1.02 3.34 0 3 C0 2.01 0 1.02 0 0 Z " fill="#FAEBEA" transform="translate(44,62)"/>
<path d="M0 0 C12.21 0 24.42 0 37 0 C37 1.98 37 3.96 37 6 C36.67 6 36.34 6 36 6 C36 4.35 36 2.7 36 1 C31.68721615 1.13811922 27.37486047 1.28678109 23.0625 1.4375 C21.83080078 1.47681641 20.59910156 1.51613281 19.33007812 1.55664062 C17.5753418 1.61948242 17.5753418 1.61948242 15.78515625 1.68359375 C14.15912476 1.73858032 14.15912476 1.73858032 12.50024414 1.79467773 C10.060737 1.72364265 10.060737 1.72364265 9 3 C10.32 3.66 11.64 4.32 13 5 C11.68 5 10.36 5 9 5 C9 8.96 9 12.92 9 17 C3.39 17 -2.22 17 -8 17 C-7.01 16.67 -6.02 16.34 -5 16 C-5 14.68 -5 13.36 -5 12 C-3.68 12 -2.36 12 -1 12 C-1 13.32 -1 14.64 -1 16 C-0.34 16 0.32 16 1 16 C0.979375 15.030625 0.95875 14.06125 0.9375 13.0625 C1 10 1 10 2 9 C3.66617115 8.95936168 5.33388095 8.957279 7 9 C6.67 6.69 6.34 4.38 6 2 C3.03 1.505 3.03 1.505 0 1 C0 0.67 0 0.34 0 0 Z " fill="#F3C0C0" transform="translate(68,75)"/>
<path d="M0 0 C1.99954746 -0.04254356 4.00041636 -0.04080783 6 0 C7 1 7 1 7.0625 4.0625 C7.041875 5.031875 7.02125 6.00125 7 7 C8.32 7.33 9.64 7.66 11 8 C10.938125 8.94875 10.87625 9.8975 10.8125 10.875 C10.874375 11.90625 10.93625 12.9375 11 14 C11.99 14.66 12.98 15.32 14 16 C13.67 17.32 13.34 18.64 13 20 C10.03 17.03 7.06 14.06 4 11 C2.02 11.99 2.02 11.99 0 13 C-1.32 13 -2.64 13 -4 13 C-4 12.34 -4 11.68 -4 11 C-3.34 11 -2.68 11 -2 11 C-1.67 10.34 -1.34 9.68 -1 9 C-0.01 8.34 0.98 7.68 2 7 C1.34 6.67 0.68 6.34 0 6 C-0.33 6.66 -0.66 7.32 -1 8 C-2 6 -2 6 -1.0625 2.875 C-0.5365625 1.451875 -0.5365625 1.451875 0 0 Z " fill="#FDE4E2" transform="translate(93,35)"/>
<path d="M0 0 C8.25 0 16.5 0 25 0 C25 0.66 25 1.32 25 2 C22.36 2.33 19.72 2.66 17 3 C17.33 4.65 17.66 6.3 18 8 C14.62209657 8.28518884 11.36707312 8.45368031 8 8 C6.1875 5.625 6.1875 5.625 5 3 C2.42900598 1.65310085 2.42900598 1.65310085 0 1 C0 0.67 0 0.34 0 0 Z M1 3 C2.32 3 3.64 3 5 3 C4.67 4.65 4.34 6.3 4 8 C2.68 7.67 1.36 7.34 0 7 C0.33 5.68 0.66 4.36 1 3 Z " fill="#F7E9E8" transform="translate(73,64)"/>
<path d="M0 0 C0.66 0.66 1.32 1.32 2 2 C1.01 3.485 1.01 3.485 0 5 C0.36693861 8.44922289 1.15775309 11.63101236 2 15 C-2.29 14.01 -6.58 13.02 -11 12 C-8.33333333 11.33333333 -5.66666667 10.66666667 -3 10 C-3 9.34 -3 8.68 -3 8 C-6.63 8 -10.26 8 -14 8 C-14 6.33333333 -14 4.66666667 -14 3 C-12.35 3 -10.7 3 -9 3 C-9 2.34 -9 1.68 -9 1 C-10.65 1 -12.3 1 -14 1 C-14 0.67 -14 0.34 -14 0 C-4.17431193 -1.39143731 -4.17431193 -1.39143731 0 0 Z " fill="#F8EFED" transform="translate(61,48)"/>
<path d="M0 0 C0.99 0.99 1.98 1.98 3 3 C5.59915538 4.19027984 5.59915538 4.19027984 8 5 C8.33 3.68 8.66 2.36 9 1 C9.99 1 10.98 1 12 1 C12.66 1.99 13.32 2.98 14 4 C14.680625 4.2475 15.36125 4.495 16.0625 4.75 C16.701875 5.1625 17.34125 5.575 18 6 C18.40310605 8.32229651 18.74059098 10.6572959 19 13 C16.79154015 12.68839539 14.58323749 12.37567654 12.375 12.0625 C10.53035156 11.80146484 10.53035156 11.80146484 8.6484375 11.53515625 C5.42443816 11.06225699 2.21187824 10.54848998 -1 10 C-0.67 6.7 -0.34 3.4 0 0 Z " fill="#FAE7E7" transform="translate(110,53)"/>
<path d="M0 0 C1.875 1.125 1.875 1.125 3 3 C3.39365568 6.14924548 3.52854531 8.11909116 1.875 10.875 C-0.88090884 12.52854531 -2.85075452 12.39365568 -6 12 C-7.875 10.875 -7.875 10.875 -9 9 C-9.39365568 5.85075452 -9.52854531 3.88090884 -7.875 1.125 C-5.11909116 -0.52854531 -3.14924548 -0.39365568 0 0 Z " fill="#FDF3F0" transform="translate(71,49)"/>
<path d="M0 0 C1.65 0.33 3.3 0.66 5 1 C5.33 2.65 5.66 4.3 6 6 C6.99 5.67 7.98 5.34 9 5 C9.09038099 10.15171623 8.84681133 14.91913204 8 20 C7.67 20 7.34 20 7 20 C6.67 18.02 6.34 16.04 6 14 C2.37 13.67 -1.26 13.34 -5 13 C-5 12.67 -5 12.34 -5 12 C-2.03 12 0.94 12 4 12 C4 11.34 4 10.68 4 10 C1.69 10 -0.62 10 -3 10 C-3.33 9.34 -3.66 8.68 -4 8 C-3.2884375 7.13375 -3.2884375 7.13375 -2.5625 6.25 C-1.0515133 4.07417916 -0.45963849 2.57397552 0 0 Z " fill="#FBE7E6" transform="translate(114,71)"/>
<path d="M0 0 C2.7885289 -0.22107787 5.34653181 -0.28107535 8.125 -0.1875 C8.87910156 -0.17396484 9.63320312 -0.16042969 10.41015625 -0.14648438 C12.27374127 -0.11109985 14.13695978 -0.05729167 16 0 C14.02 0.99 14.02 0.99 12 2 C12 6.29 12 10.58 12 15 C11.34 15 10.68 15 10 15 C10 12.36 10 9.72 10 7 C8.35 7 6.7 7 5 7 C5 9.64 5 12.28 5 15 C4.34 15 3.68 15 3 15 C3 11.04 3 7.08 3 3 C1.35 3 -0.3 3 -2 3 C-1.34 2.01 -0.68 1.02 0 0 Z " fill="#FCEBE9" transform="translate(78,76)"/>
<path d="M0 0 C5.47891232 0 6.22293717 0.42710273 10 4 C12 7 12 7 12 11 C8.04 11 4.08 11 0 11 C0 7.37 0 3.74 0 0 Z " fill="#F6A19C" transform="translate(130,33)"/>
<path d="M0 0 C0.66 0.33 1.32 0.66 2 1 C1.67 3.31 1.34 5.62 1 8 C-3.58212211 9.18248312 -8.302486 9.6573014 -13 9 C-15.5625 7.125 -15.5625 7.125 -17 5 C-17 4.34 -17 3.68 -17 3 C-11.49017726 1.62254432 -5.45954909 1.1801503 0 3 C0 2.01 0 1.02 0 0 Z " fill="#FDF8F8" transform="translate(32,29)"/>
<path d="M0 0 C0.66 0 1.32 0 2 0 C2 0.99 2 1.98 2 3 C2.639375 3.309375 3.27875 3.61875 3.9375 3.9375 C6 5 6 5 7 6 C7.04080783 7.99958364 7.04254356 10.00045254 7 12 C5.68 12 4.36 12 3 12 C3 14.31 3 16.62 3 19 C-0.60993172 20.13480527 -3.9842327 20.10015767 -7.75 20.0625 C-8.92046875 20.05347656 -10.0909375 20.04445313 -11.296875 20.03515625 C-12.18890625 20.02355469 -13.0809375 20.01195313 -14 20 C-14 19.67 -14 19.34 -14 19 C-10.04 19 -6.08 19 -2 19 C-2.020625 17.906875 -2.04125 16.81375 -2.0625 15.6875 C-2 12 -2 12 -1 9 C1.31 9 3.62 9 6 9 C4.27773504 5.75150023 4.27773504 5.75150023 1 5 C0.67 5.99 0.34 6.98 0 8 C0 5.36 0 2.72 0 0 Z " fill="#FAC6C5" transform="translate(126,74)"/>
<path d="M0 0 C0.639375 0.28875 1.27875 0.5775 1.9375 0.875 C5.88410292 2.3247725 9.8874607 3.15778062 14 4 C14.33 6.64 14.66 9.28 15 12 C14.01 12 13.02 12 12 12 C11.67 23.55 11.34 35.1 11 47 C10.67 47 10.34 47 10 47 C9.67 33.8 9.34 20.6 9 7 C7.02 6.34 5.04 5.68 3 5 C1.125 2.375 1.125 2.375 0 0 Z " fill="#F3DBDA" transform="translate(101,15)"/>
<path d="M0 0 C2 2 2 2 2.3125 5.3125 C1.77365992 11.67081299 -1.48516482 14.72920997 -6 19 C-6.99 18.67 -7.98 18.34 -9 18 C-8.34 16.35 -7.68 14.7 -7 13 C-7.66 12.67 -8.32 12.34 -9 12 C-9 11.34 -9 10.68 -9 10 C-6.69 9.34 -4.38 8.68 -2 8 C-2 7.34 -2 6.68 -2 6 C-3.32 5.67 -4.64 5.34 -6 5 C-5.38125 4.731875 -4.7625 4.46375 -4.125 4.1875 C-1.7004767 3.04443152 -1.7004767 3.04443152 0 0 Z " fill="#FAE7E7" transform="translate(144,74)"/>
<path d="M0 0 C3.42527887 1.47348708 5.64955058 3.40907846 8.25 6.0625 C8.95640625 6.77535156 9.6628125 7.48820312 10.390625 8.22265625 C12 10 12 10 12 11 C8.57104524 11.4269252 5.41370549 11.60451035 2 11 C-0.55733402 9.00707759 -2.28354662 6.73516149 -4 4 C-2.68 2.68 -1.36 1.36 0 0 Z " fill="#E14643" transform="translate(95,45)"/>
<path d="M0 0 C0.99 0.33 1.98 0.66 3 1 C5.22818441 1.06937062 7.45834524 1.08457084 9.6875 1.0625 C10.86699219 1.05347656 12.04648437 1.04445312 13.26171875 1.03515625 C14.16535156 1.02355469 15.06898437 1.01195312 16 1 C15.2575 1.721875 14.515 2.44375 13.75 3.1875 C10.18886524 6.82956964 7.08113759 10.31744042 5 15 C4.34 14.01 3.68 13.02 3 12 C2.34 11.67 1.68 11.34 1 11 C1 8 1 8 3 6 C3 5.01 3 4.02 3 3 C2.01 2.67 1.02 2.34 0 2 C0 1.34 0 0.68 0 0 Z " fill="#F8E1E2" transform="translate(16,36)"/>
<path d="M0 0 C4.0424976 1.39649917 5.42973679 2.42294399 7.4375 6.1875 C7.51826408 10.14493993 6.93588717 11.64639393 4.25 14.5625 C1.01778931 16.42999951 -0.89073991 16.52905908 -4.5625 16.1875 C-5.2225 17.5075 -5.8825 18.8275 -6.5625 20.1875 C-7.2225 19.8575 -7.8825 19.5275 -8.5625 19.1875 C-7.5725 17.7025 -7.5725 17.7025 -6.5625 16.1875 C-6.84802357 14.29082891 -6.84802357 14.29082891 -7.5625 12.1875 C-8.4375 9.3125 -8.4375 9.3125 -8.5625 6.1875 C-6.09609361 1.94836402 -5.00876598 0.26361926 0 0 Z M-5.4375 3.3125 C-7.09104531 6.06840884 -6.95615568 8.03825452 -6.5625 11.1875 C-5.5625 13.1875 -5.5625 13.1875 -3.5625 14.1875 C-0.41325452 14.58115568 1.55659116 14.71604531 4.3125 13.0625 C5.96604531 10.30659116 5.83115568 8.33674548 5.4375 5.1875 C4.4375 3.1875 4.4375 3.1875 2.4375 2.1875 C-0.71174548 1.79384432 -2.68159116 1.65895469 -5.4375 3.3125 Z " fill="#8C3A3B" transform="translate(68.5625,46.8125)"/>
<path d="M0 0 C0.66 0 1.32 0 2 0 C2 1.65 2 3.3 2 5 C2.99 5 3.98 5 5 5 C5 4.34 5 3.68 5 3 C5.66 3 6.32 3 7 3 C7.66 4.98 8.32 6.96 9 9 C3.72 9 -1.56 9 -7 9 C-6.67 7.02 -6.34 5.04 -6 3 C-5.01 3 -4.02 3 -3 3 C-3 3.66 -3 4.32 -3 5 C-2.01 5 -1.02 5 0 5 C-0.2784375 4.0409375 -0.2784375 4.0409375 -0.5625 3.0625 C-0.706875 2.381875 -0.85125 1.70125 -1 1 C-0.67 0.67 -0.34 0.34 0 0 Z " fill="#BE3032" transform="translate(23,23)"/>
<path d="M0 0 C3.3 0.33 6.6 0.66 10 1 C10.80660045 4.04715725 11.01332621 5.93470158 10.375 9.0625 C9.68584348 12.03672988 9.68584348 12.03672988 11.4375 14.375 C11.953125 14.91125 12.46875 15.4475 13 16 C12.03114628 17.68496298 11.03013277 19.35178756 10 21 C9.67 21 9.34 21 9 21 C9 19.35 9 17.7 9 16 C8.01 16 7.02 16 6 16 C6 17.65 6 19.3 6 21 C5.01 20.01 4.02 19.02 3 18 C3.928125 17.1028125 3.928125 17.1028125 4.875 16.1875 C7.84734546 11.72898181 8.30217898 7.24283948 9 2 C4.545 2.495 4.545 2.495 0 3 C0 2.01 0 1.02 0 0 Z " fill="#CF2D31" transform="translate(48,60)"/>
<path d="M0 0 C0.99 0.33 1.98 0.66 3 1 C5.34341197 6.07739261 5.58662305 11.4955595 6 17 C4.02 17 2.04 17 0 17 C-0.97040422 11.06975197 -0.89316269 5.93609666 0 0 Z " fill="#BE1417" transform="translate(34,77)"/>
<path d="M0 0 C0 1.98 0 3.96 0 6 C-2.52475462 7.26237731 -4.31200466 7.09856404 -7.125 7.0625 C-8.03507812 7.05347656 -8.94515625 7.04445313 -9.8828125 7.03515625 C-10.58148438 7.02355469 -11.28015625 7.01195312 -12 7 C-12 5.68 -12 4.36 -12 3 C-11.34 3 -10.68 3 -10 3 C-10 2.34 -10 1.68 -10 1 C-6.78548731 -0.60725635 -3.56387464 -0.05748185 0 0 Z " fill="#F9F5F4" transform="translate(72,12)"/>
<path d="M0 0 C0.33 1.32 0.66 2.64 1 4 C1.66 4 2.32 4 3 4 C3 3.01 3 2.02 3 1 C7.95 1 12.9 1 18 1 C18 1.33 18 1.66 18 2 C22.29 2.33 26.58 2.66 31 3 C31 3.33 31 3.66 31 4 C15.655 4.495 15.655 4.495 0 5 C0 3.35 0 1.7 0 0 Z " fill="#D62A2D" transform="translate(41,22)"/>
<path d="M0 0 C0.33 0 0.66 0 1 0 C0.39176444 8.73938465 -0.70045422 17.33636147 -2 26 C3.28 26 8.56 26 14 26 C14 26.33 14 26.66 14 27 C11.18780295 27.19384179 8.37545804 27.38036603 5.5625 27.5625 C4.76005859 27.61857422 3.95761719 27.67464844 3.13085938 27.73242188 C1.08937889 27.8616295 -0.95546369 27.9351273 -3 28 C-3.33 27.67 -3.66 27.34 -4 27 C-3.9269148 17.91916435 -1.76949238 8.86971966 0 0 Z " fill="#B75859" transform="translate(107,65)"/>
<path d="M0 0 C0.99 0.33 1.98 0.66 3 1 C3 2.65 3 4.3 3 6 C3.66 6.33 4.32 6.66 5 7 C5 8.32 5 9.64 5 11 C2.1875 11.625 2.1875 11.625 -1 12 C-1.99 11.34 -2.98 10.68 -4 10 C-3.71125 9.46375 -3.4225 8.9275 -3.125 8.375 C-1.83288192 5.64719516 -0.91441408 2.87387282 0 0 Z " fill="#D21E20" transform="translate(53,33)"/>
<path d="M0 0 C3.96 0.33 7.92 0.66 12 1 C10.76923077 5.92307692 10.76923077 5.92307692 8 8 C5.3125 8.6875 5.3125 8.6875 3 9 C3 7.35 3 5.7 3 4 C2.01 3.67 1.02 3.34 0 3 C0 2.01 0 1.02 0 0 Z " fill="#FCF6F7" transform="translate(44,62)"/>
<path d="M0 0 C1.65 0 3.3 0 5 0 C5 2.31 5 4.62 5 7 C0.38 7 -4.24 7 -9 7 C-8.01 6.67 -7.02 6.34 -6 6 C-6 4.68 -6 3.36 -6 2 C-4.68 2 -3.36 2 -2 2 C-2 3.32 -2 4.64 -2 6 C-1.34 6 -0.68 6 0 6 C0 4.02 0 2.04 0 0 Z " fill="#E2908F" transform="translate(69,85)"/>
<path d="M0 0 C1.32 0.33 2.64 0.66 4 1 C3.979375 1.7425 3.95875 2.485 3.9375 3.25 C3.99328688 5.70462279 4.3069904 7.66109261 5 10 C2.36 10 -0.28 10 -3 10 C-3.33 9.34 -3.66 8.68 -4 8 C-3.2884375 7.13375 -3.2884375 7.13375 -2.5625 6.25 C-1.0515133 4.07417916 -0.45963849 2.57397552 0 0 Z " fill="#C94849" transform="translate(114,71)"/>
<path d="M0 0 C0.33 0 0.66 0 1 0 C1 4.29 1 8.58 1 13 C0.34 13 -0.32 13 -1 13 C-1 10.36 -1 7.72 -1 5 C-2.65 5 -4.3 5 -6 5 C-6 7.64 -6 10.28 -6 13 C-6.66 13 -7.32 13 -8 13 C-8 9.37 -8 5.74 -8 2 C-5.36 2.66 -2.72 3.32 0 4 C0 2.68 0 1.36 0 0 Z " fill="#FFD3D3" transform="translate(89,78)"/>
<path d="M0 0 C-0.3492558 3.14330223 -0.83925733 4.79491452 -2.8125 7.3125 C-5 9 -5 9 -9 9 C-8.70460812 5.45529741 -8.22373481 4.21784705 -5.625 1.6875 C-3 0 -3 0 0 0 Z " fill="#CC3133" transform="translate(145,70)"/>
<path d="M0 0 C0.36601307 7.4422658 0.36601307 7.4422658 -1.3125 10 C-3 11 -3 11 -6 11 C-6.48951049 4.63636364 -6.48951049 4.63636364 -4.125 1.5625 C-2 0 -2 0 0 0 Z " fill="#CF3232" transform="translate(139,63)"/>
<path d="M0 0 C2.97 0 5.94 0 9 0 C8.34 1.98 7.68 3.96 7 6 C4.625 6.625 4.625 6.625 2 7 C0 5 0 5 -0.125 2.375 C-0.08375 1.59125 -0.0425 0.8075 0 0 Z " fill="#FDFBFA" transform="translate(129,86)"/>
<path d="M0 0 C5.28 0 10.56 0 16 0 C16 0.99 16 1.98 16 3 C10.39 3 4.78 3 -1 3 C-0.67 2.01 -0.34 1.02 0 0 Z " fill="#FEF8FA" transform="translate(76,57)"/>
<path d="M0 0 C0.66 0 1.32 0 2 0 C1.34 4.95 0.68 9.9 0 15 C-0.33 15 -0.66 15 -1 15 C-1.12375 14.030625 -1.2475 13.06125 -1.375 12.0625 C-1.684375 10.5465625 -1.684375 10.5465625 -2 9 C-2.66 8.67 -3.32 8.34 -4 8 C-4 9.98 -4 11.96 -4 14 C-6 11 -6 11 -7 8 C-6.34 8 -5.68 8 -5 8 C-4.67 6.35 -4.34 4.7 -4 3 C-3.01 3 -2.02 3 -1 3 C-0.67 2.01 -0.34 1.02 0 0 Z " fill="#F9DDDA" transform="translate(14,71)"/>
<path d="M0 0 C1.32 0.33 2.64 0.66 4 1 C2.68 1.33 1.36 1.66 0 2 C0 2.99 0 3.98 0 5 C1.32 5.33 2.64 5.66 4 6 C3.75 8.375 3.75 8.375 3 11 C0.9375 12.3125 0.9375 12.3125 -1 13 C-2.5121867 9.97562661 -2.17263369 7.33758466 -2 4 C-1 1.5625 -1 1.5625 0 0 Z " fill="#DAA4A5" transform="translate(44,60)"/>
<path d="M0 0 C1.32 0 2.64 0 4 0 C4 3.96 4 7.92 4 12 C2.68 12 1.36 12 0 12 C0 8.04 0 4.08 0 0 Z " fill="#D13534" transform="translate(77,80)"/>
<path d="M0 0 C1.69141656 0.08963062 3.37959602 0.24577676 5.0625 0.4375 C6.44115234 0.59025391 6.44115234 0.59025391 7.84765625 0.74609375 C8.55792969 0.82988281 9.26820312 0.91367188 10 1 C10 2.32 10 3.64 10 5 C6.7 5 3.4 5 0 5 C-0.33 3.68 -0.66 2.36 -1 1 C-0.67 0.67 -0.34 0.34 0 0 Z " fill="#EDB1AE" transform="translate(81,67)"/>
<path d="M0 0 C3.3 0 6.6 0 10 0 C9.67 1.98 9.34 3.96 9 6 C5 6 5 6 3.515625 4.6875 C2.34375 3.125 1.171875 1.5625 0 0 Z " fill="#9E1411" transform="translate(131,45)"/>
<path d="M0 0 C1.32 0.33 2.64 0.66 4 1 C4 1.66 4 2.32 4 3 C4.66 3 5.32 3 6 3 C7.0257259 7.41062136 7.03684712 9.92630576 5 14 C4.01 13.67 3.02 13.34 2 13 C2.66 13 3.32 13 4 13 C4 11.68 4 10.36 4 9 C3.01 8.67 2.02 8.34 1 8 C0.67 5.36 0.34 2.72 0 0 Z " fill="#F9DADA" transform="translate(54,31)"/>
<path d="M0 0 C2.78388975 1.70625501 3.85384206 2.47626739 4.75 5.6875 C4.8325 6.450625 4.915 7.21375 5 8 C5.66 8 6.32 8 7 8 C7 9.65 7 11.3 7 13 C4.69 13 2.38 13 0 13 C0.33 12.236875 0.66 11.47375 1 10.6875 C2.17436686 8.00930865 2.17436686 8.00930865 2 5 C1.34 4.67 0.68 4.34 0 4 C0 2.68 0 1.36 0 0 Z " fill="#CF2529" transform="translate(38,65)"/>
<path d="M0 0 C0.598125 0.350625 1.19625 0.70125 1.8125 1.0625 C1.8125 1.7225 1.8125 2.3825 1.8125 3.0625 C2.4725 3.3925 3.1325 3.7225 3.8125 4.0625 C1.8125 6.0625 1.8125 6.0625 -1.8125 6.1875 C-2.92625 6.14625 -4.04 6.105 -5.1875 6.0625 C-5.1875 4.0825 -5.1875 2.1025 -5.1875 0.0625 C-2.1875 -0.9375 -2.1875 -0.9375 0 0 Z " fill="#DF1C20" transform="translate(132.1875,48.9375)"/>
<path d="M0 0 C0.99 0.33 1.98 0.66 3 1 C3.144375 1.763125 3.28875 2.52625 3.4375 3.3125 C3.9632594 6.08172908 3.9632594 6.08172908 5 9 C2.36 9 -0.28 9 -3 9 C-2.5359375 7.88625 -2.5359375 7.88625 -2.0625 6.75 C-1.1905075 4.49307824 -0.52332993 2.3549847 0 0 Z " fill="#B01C1F" transform="translate(79,7)"/>
<path d="M0 0 C0.99 0.33 1.98 0.66 3 1 C3.1875 3.875 3.1875 3.875 3 7 C-0.63195496 9.42130331 -2.38349348 9.21022785 -6.6875 9.125 C-7.86699219 9.10695313 -9.04648438 9.08890625 -10.26171875 9.0703125 C-11.16535156 9.04710938 -12.06898437 9.02390625 -13 9 C-13 8.67 -13 8.34 -13 8 C-9.04 8 -5.08 8 -1 8 C-1.020625 6.865625 -1.04125 5.73125 -1.0625 4.5625 C-1 1 -1 1 0 0 Z " fill="#F9BABA" transform="translate(125,85)"/>
<path d="M0 0 C1.65 0 3.3 0 5 0 C4.01 1.485 4.01 1.485 3 3 C2.60612212 5.32387947 2.26513915 7.65793749 2 10 C4.97 10 7.94 10 11 10 C11.33 9.01 11.66 8.02 12 7 C12 8.32 12 9.64 12 11 C8.04 11 4.08 11 0 11 C0 7.37 0 3.74 0 0 Z " fill="#F9B6B4" transform="translate(130,33)"/>
<path d="M0 0 C2.64 0 5.28 0 8 0 C7.38722388 2.96175123 6.74627478 4.38058783 5 7 C3.0625 6.3125 3.0625 6.3125 1 5 C0.25 2.375 0.25 2.375 0 0 Z " fill="#C62B2C" transform="translate(118,18)"/>
<path d="M0 0 C4.82312172 0.01634957 9.448391 0.14712573 14.1796875 1.1328125 C14.5096875 1.7928125 14.8396875 2.4528125 15.1796875 3.1328125 C14.1896875 4.6178125 14.1896875 4.6178125 13.1796875 6.1328125 C12.8496875 5.4728125 12.5196875 4.8128125 12.1796875 4.1328125 C8.60433731 3.0567071 8.60433731 3.0567071 5.1796875 4.1328125 C5.1796875 3.4728125 5.1796875 2.8128125 5.1796875 2.1328125 C4.5196875 2.1328125 3.8596875 2.1328125 3.1796875 2.1328125 C2.8496875 2.7928125 2.5196875 3.4528125 2.1796875 4.1328125 C2.1796875 3.4728125 2.1796875 2.8128125 2.1796875 2.1328125 C1.5196875 2.1328125 0.8596875 2.1328125 0.1796875 2.1328125 C-0.1503125 2.7928125 -0.4803125 3.4528125 -0.8203125 4.1328125 C-0.8203125 3.4728125 -0.8203125 2.8128125 -0.8203125 2.1328125 C-1.4803125 1.8028125 -2.1403125 1.4728125 -2.8203125 1.1328125 C-1.8203125 0.1328125 -1.8203125 0.1328125 0 0 Z " fill="#C99A9B" transform="translate(110.8203125,62.8671875)"/>
<path d="M0 0 C2.9375 1.0625 2.9375 1.0625 6 3 C6.875 6.6875 6.875 6.6875 7 10 C3.5625 8.8125 3.5625 8.8125 0 7 C-1 4.4375 -1 4.4375 -1 2 C-0.67 1.34 -0.34 0.68 0 0 Z " fill="#FCEDEE" transform="translate(122,56)"/>
<path d="M0 0 C2 1.125 2 1.125 4 3 C4.25 6.1875 4.25 6.1875 4 9 C3.67 8.34 3.34 7.68 3 7 C1.02 7 -0.96 7 -3 7 C-2.25 2.25 -2.25 2.25 0 0 Z " fill="#F7C4C2" transform="translate(70,49)"/>
<path d="M0 0 C0.99 0 1.98 0 3 0 C3 3.96 3 7.92 3 12 C2.01 12 1.02 12 0 12 C0 8.04 0 4.08 0 0 Z " fill="#DB2A2C" transform="translate(91,79)"/>
<path d="M0 0 C3.3 0.33 6.6 0.66 10 1 C11.26264601 5.29299643 10.62950412 7.87831311 9 12 C7.7619986 8.42355152 8.25073929 5.66305234 9 2 C4.545 2.495 4.545 2.495 0 3 C0 2.01 0 1.02 0 0 Z " fill="#AD7B78" transform="translate(48,60)"/>
<path d="M0 0 C2.79736328 -0.2487793 2.79736328 -0.2487793 6.3203125 -0.07421875 C8.20556641 0.00795898 8.20556641 0.00795898 10.12890625 0.09179688 C11.46095566 0.16503502 12.79298675 0.23860706 14.125 0.3125 C15.46477825 0.37575203 16.80462269 0.43761834 18.14453125 0.49804688 C21.4305942 0.65171169 24.71531242 0.81962333 28 1 C28 1.33 28 1.66 28 2 C18.1 2.33 8.2 2.66 -2 3 C-1.34 2.01 -0.68 1.02 0 0 Z " fill="#F4DCDB" transform="translate(74,59)"/>
<path d="M0 0 C0.33 0 0.66 0 1 0 C1.09796875 0.59167969 1.1959375 1.18335938 1.296875 1.79296875 C2.25769801 6.87042139 3.2985201 10.17513744 7 14 C6.01 14.33 5.02 14.66 4 15 C3.34 14.34 2.68 13.68 2 13 C1.34 12.67 0.68 12.34 0 12 C-0.73075648 9.6859378 -1.40138258 7.35171131 -2 5 C-1.34 5 -0.68 5 0 5 C0 3.35 0 1.7 0 0 Z " fill="#FBCCCA" transform="translate(118,41)"/>
<path d="M0 0 C0.33 1.32 0.66 2.64 1 4 C1.66 4 2.32 4 3 4 C3 3.01 3 2.02 3 1 C4.98 1 6.96 1 9 1 C9.33 2.32 9.66 3.64 10 5 C6.7 5 3.4 5 0 5 C0 3.35 0 1.7 0 0 Z " fill="#C54541" transform="translate(41,22)"/>
<path d="M0 0 C0 2.31 0 4.62 0 7 C-1.98 7 -3.96 7 -6 7 C-6 6.01 -6 5.02 -6 4 C-5.34 4 -4.68 4 -4 4 C-4 3.34 -4 2.68 -4 2 C-4.66 1.67 -5.32 1.34 -6 1 C-1.125 0 -1.125 0 0 0 Z " fill="#FEF9F9" transform="translate(121,84)"/>
<path d="M0 0 C3.3 0 6.6 0 10 0 C10 0.33 10 0.66 10 1 C5.46625958 2.03039555 4.35532149 2.17766075 0 0 Z M0 2 C1.32 2 2.64 2 4 2 C3.67 3.65 3.34 5.3 3 7 C1.68 6.67 0.36 6.34 -1 6 C-0.67 4.68 -0.34 3.36 0 2 Z " fill="#DD8F8F" transform="translate(74,65)"/>
<path d="M0 0 C0.28875 0.61875 0.5775 1.2375 0.875 1.875 C1.93720042 4.13325765 1.93720042 4.13325765 4 6 C4 7.32 4 8.64 4 10 C3.01 10 2.02 10 1 10 C-0.76462683 6.91190305 -1 5.76687864 -1 2 C-2.65 2 -4.3 2 -6 2 C-6 1.67 -6 1.34 -6 1 C-4.02 0.67 -2.04 0.34 0 0 Z " fill="#FEF7F7" transform="translate(116,17)"/>
<path d="M0 0 C0.66 0.66 1.32 1.32 2 2 C2.99 1.67 3.98 1.34 5 1 C5.73080266 2.97746603 6.39421747 4.98072489 7 7 C6.67 7.66 6.34 8.32 6 9 C3 7.3125 3 7.3125 0 5 C-0.375 2.25 -0.375 2.25 0 0 Z " fill="#F8DCDA" transform="translate(34,58)"/>
<path d="M0 0 C1.65 0.33 3.3 0.66 5 1 C4.67 2.65 4.34 4.3 4 6 C2.35 5.67 0.7 5.34 -1 5 C-0.67 3.35 -0.34 1.7 0 0 Z " fill="#DA5457" transform="translate(95,35)"/>
<path d="M0 0 C0.99 0.99 1.98 1.98 3 3 C2.67 3.99 2.34 4.98 2 6 C-3.94 4.515 -3.94 4.515 -10 3 C-7.96076075 2.49019019 -5.9211226 1.98144061 -3.875 1.5 C-1.92918141 1.04861276 -1.92918141 1.04861276 0 0 Z " fill="#F7DDDC" transform="translate(60,57)"/>
<path d="M0 0 C0.33 0 0.66 0 1 0 C1 1.98 1 3.96 1 6 C2.98 6.495 2.98 6.495 5 7 C5.33 8.65 5.66 10.3 6 12 C4.68 11.67 3.36 11.34 2 11 C2 10.01 2 9.02 2 8 C1.34 8 0.68 8 0 8 C0 5.36 0 2.72 0 0 Z " fill="#D55453" transform="translate(126,66)"/>
<path d="M0 0 C0.66 0.66 1.32 1.32 2 2 C4.57061311 2.64767793 4.57061311 2.64767793 7 3 C6.67 3.66 6.34 4.32 6 5 C7.65 5.33 9.3 5.66 11 6 C11 6.33 11 6.66 11 7 C9.88625 7.309375 8.7725 7.61875 7.625 7.9375 C4.2054845 8.82326483 4.2054845 8.82326483 2 10 C2.226875 9.401875 2.45375 8.80375 2.6875 8.1875 C2.790625 7.465625 2.89375 6.74375 3 6 C1.58333333 4.41666667 1.58333333 4.41666667 0 3 C0 2.01 0 1.02 0 0 Z " fill="#F9DAD9" transform="translate(57,69)"/>
<path d="M0 0 C0.66 0.66 1.32 1.32 2 2 C1.67 2.99 1.34 3.98 1 5 C0.34 5 -0.32 5 -1 5 C-1.66 6.98 -2.32 8.96 -3 11 C-3.66 10.67 -4.32 10.34 -5 10 C-3.14285714 2.42857143 -3.14285714 2.42857143 0 0 Z " fill="#FDF9FC" transform="translate(113,67)"/>
<path d="M0 0 C1.32 0 2.64 0 4 0 C4 2.31 4 4.62 4 7 C3.01 6.67 2.02 6.34 1 6 C1 5.34 1 4.68 1 4 C0.34 4 -0.32 4 -1 4 C-1.66 4.66 -2.32 5.32 -3 6 C-2.42655063 3.13275314 -2.1385485 2.1385485 0 0 Z " fill="#E32022" transform="translate(125,35)"/>
<path d="M0 0 C1.32 0 2.64 0 4 0 C4 2.31 4 4.62 4 7 C2.68 7 1.36 7 0 7 C0 4.69 0 2.38 0 0 Z " fill="#D23535" transform="translate(70,85)"/>
<path d="M0 0 C0.99 0.33 1.98 0.66 3 1 C3.75 3.75 3.75 3.75 4 7 C2.0625 9.375 2.0625 9.375 0 11 C-1.26026798 8.47946405 -0.91874445 7.1457902 -0.5625 4.375 C-0.46066406 3.55773437 -0.35882813 2.74046875 -0.25390625 1.8984375 C-0.17011719 1.27195312 -0.08632813 0.64546875 0 0 Z " fill="#CB100E" transform="translate(34,77)"/>
<path d="M0 0 C0.33 0 0.66 0 1 0 C1 1.98 1 3.96 1 6 C1.66 6.33 2.32 6.66 3 7 C3 10.63 3 14.26 3 18 C2.34 18 1.68 18 1 18 C-1.00925164 11.61767125 -0.99989549 6.59390542 0 0 Z " fill="#E1A2A3" transform="translate(132,68)"/>
<path d="M0 0 C2.97 0.495 2.97 0.495 6 1 C5.67 2.65 5.34 4.3 5 6 C3.68 6 2.36 6 1 6 C0.67 4.02 0.34 2.04 0 0 Z " fill="#FBD6D6" transform="translate(45,74)"/>
<path d="M0 0 C0.268125 0.61875 0.53625 1.2375 0.8125 1.875 C1.95556848 4.2995233 1.95556848 4.2995233 5 6 C4.67 7.32 4.34 8.64 4 10 C1.69 7.69 -0.62 5.38 -3 3 C-2.01 2.01 -1.02 1.02 0 0 Z " fill="#FCD5D1" transform="translate(102,45)"/>
<path d="M0 0 C2.23551759 3.35327639 2.17283528 3.90743657 1.625 7.6875 C1.51414062 8.49574219 1.40328125 9.30398437 1.2890625 10.13671875 C1.19367187 10.75160156 1.09828125 11.36648437 1 12 C0.01 11.67 -0.98 11.34 -2 11 C-1.67 10.67 -1.34 10.34 -1 10 C-1 8.88625 -1 7.7725 -1 6.625 C-1 3 -1 3 0 0 Z " fill="#C40E0D" transform="translate(18,77)"/>
<path d="M0 0 C0.33 0 0.66 0 1 0 C1.26218749 3.14624993 1.24754367 4.61837017 -0.5 7.3125 C-1.2425 8.1478125 -1.2425 8.1478125 -2 9 C-2.33 8.67 -2.66 8.34 -3 8 C-3.66 8.99 -4.32 9.98 -5 11 C-5.3888868 8.35556973 -5.39540909 6.61173798 -3.921875 4.33203125 C-2.68085526 2.83068266 -1.34417351 1.40974295 0 0 Z " fill="#783936" transform="translate(21,51)"/>
<path d="M0 0 C2.88575819 0.39803561 3.82189513 0.79009069 5.75 3.0625 C6.36875 4.0215625 6.36875 4.0215625 7 5 C5.02 5 3.04 5 1 5 C1 4.34 1 3.68 1 3 C-0.32 3.33 -1.64 3.66 -3 4 C-2.01 2.68 -1.02 1.36 0 0 Z " fill="#CE2E30" transform="translate(79,40)"/>
<path d="M0 0 C1.65 0 3.3 0 5 0 C4.278125 0.556875 3.55625 1.11375 2.8125 1.6875 C0.02542701 3.97909334 -2.48641528 6.41459857 -5 9 C-5.66 8.67 -6.32 8.34 -7 8 C-5.38405168 5.95880212 -3.7143618 3.95927063 -2 2 C-1.34 2 -0.68 2 0 2 C0 1.34 0 0.68 0 0 Z " fill="#FCDCD9" transform="translate(77,39)"/>
<path d="M0 0 C0.99 0.33 1.98 0.66 3 1 C3.33 3.64 3.66 6.28 4 9 C2.68 8.34 1.36 7.68 0 7 C0 4.69 0 2.38 0 0 Z " fill="#FDEDED" transform="translate(10,79)"/>
<path d="M0 0 C1.98 0.495 1.98 0.495 4 1 C3.67 2.65 3.34 4.3 3 6 C1.68 5.67 0.36 5.34 -1 5 C-0.67 3.35 -0.34 1.7 0 0 Z " fill="#CE5454" transform="translate(114,71)"/>
<path d="M0 0 C0.99 0.33 1.98 0.66 3 1 C3 2.98 3 4.96 3 7 C1.35 7 -0.3 7 -2 7 C-1.34 4.69 -0.68 2.38 0 0 Z " fill="#CC4040" transform="translate(53,33)"/>
<path d="M0 0 C0.1875 2.875 0.1875 2.875 0 6 C-0.99 6.66 -1.98 7.32 -3 8 C-4 7 -4 7 -4.25 4.5625 C-4.1675 3.716875 -4.085 2.87125 -4 2 C-1 0 -1 0 0 0 Z " fill="#FDFBFC" transform="translate(123,70)"/>
<path d="M0 0 C0.99 0 1.98 0 3 0 C3.33 1.98 3.66 3.96 4 6 C2.35 6 0.7 6 -1 6 C-0.67 4.02 -0.34 2.04 0 0 Z " fill="#CD6668" transform="translate(17,26)"/>
<path d="M0 0 C3.0831351 1.19899698 6.06279492 2.47700477 9 4 C9 4.66 9 5.32 9 6 C6.75 6.3125 6.75 6.3125 4 6 C0 1.78378378 0 1.78378378 0 0 Z " fill="#F2D3D5" transform="translate(101,15)"/>
<path d="M0 0 C1.65 0 3.3 0 5 0 C5.66 1.32 6.32 2.64 7 4 C4.69 4 2.38 4 0 4 C0 2.68 0 1.36 0 0 Z " fill="#DD7876" transform="translate(125,79)"/>
<path d="M0 0 C1.32 0.33 2.64 0.66 4 1 C4.33 2.98 4.66 4.96 5 7 C3.0625 6.3125 3.0625 6.3125 1 5 C0.25 2.375 0.25 2.375 0 0 Z " fill="#F2A7A9" transform="translate(136,36)"/>
<path d="M0 0 C0.99 0 1.98 0 3 0 C3 2.31 3 4.62 3 7 C2.01 7 1.02 7 0 7 C0 4.69 0 2.38 0 0 Z " fill="#D92726" transform="translate(84,84)"/>
<path d="M0 0 C0.66 0 1.32 0 2 0 C2.66 1.98 3.32 3.96 4 6 C2.35 5.67 0.7 5.34 -1 5 C-1.33 4.01 -1.66 3.02 -2 2 C-1.34 2 -0.68 2 0 2 C0 1.34 0 0.68 0 0 Z " fill="#D06364" transform="translate(28,26)"/>
<path d="M0 0 C0.66 0.66 1.32 1.32 2 2 C1 3 1 3 -2.37890625 3.09765625 C-3.77347077 3.09098369 -5.16801743 3.07902532 -6.5625 3.0625 C-7.27341797 3.05798828 -7.98433594 3.05347656 -8.71679688 3.04882812 C-10.47790013 3.03700864 -12.23896036 3.01907263 -14 3 C-14 2.67 -14 2.34 -14 2 C-13.15695313 1.93941406 -12.31390625 1.87882812 -11.4453125 1.81640625 C-10.34960938 1.73261719 -9.25390625 1.64882812 -8.125 1.5625 C-7.03445312 1.48128906 -5.94390625 1.40007812 -4.8203125 1.31640625 C-2.05271029 1.16998297 -2.05271029 1.16998297 0 0 Z " fill="#FED1D3" transform="translate(40,93)"/>
<path d="M0 0 C0.99 0.66 1.98 1.32 3 2 C3 2.66 3 3.32 3 4 C2.01 4.66 1.02 5.32 0 6 C0 6.99 0 7.98 0 9 C-0.66 9 -1.32 9 -2 9 C-1.125 2.25 -1.125 2.25 0 0 Z " fill="#CB2223" transform="translate(33,62)"/>
<path d="M0 0 C3.3 0.33 6.6 0.66 10 1 C10 1.33 10 1.66 10 2 C3.375 4.125 3.375 4.125 0 3 C0 2.01 0 1.02 0 0 Z " fill="#FEF0EB" transform="translate(44,62)"/>
<path d="M0 0 C-0.75 6.625 -0.75 6.625 -3 10 C-3.6875 6.6875 -3.6875 6.6875 -4 3 C-1.87096774 0 -1.87096774 0 0 0 Z " fill="#F5E0DF" transform="translate(16,58)"/>
<path d="M0 0 C0 0.99 0 1.98 0 3 C-1 4 -1 4 -3.50390625 4.09765625 C-5.01791016 4.08025391 -5.01791016 4.08025391 -6.5625 4.0625 C-7.57441406 4.05347656 -8.58632812 4.04445313 -9.62890625 4.03515625 C-10.41136719 4.02355469 -11.19382812 4.01195312 -12 4 C-11.67 3.34 -11.34 2.68 -11 2 C-9.39125 2.061875 -9.39125 2.061875 -7.75 2.125 C-4.34252515 2.0114175 -2.79260369 1.78726636 0 0 Z " fill="#FDCFC8" transform="translate(137,53)"/>
<path d="M0 0 C0.66 0 1.32 0 2 0 C2 2.31 2 4.62 2 7 C0.35 7.66 -1.3 8.32 -3 9 C-3 7.68 -3 6.36 -3 5 C-2.01 5 -1.02 5 0 5 C0 3.35 0 1.7 0 0 Z " fill="#FAD6D5" transform="translate(51,32)"/>
<path d="M0 0 C0.99 0.33 1.98 0.66 3 1 C3 2.65 3 4.3 3 6 C1.68 5.67 0.36 5.34 -1 5 C-0.67 3.35 -0.34 1.7 0 0 Z " fill="#BC363B" transform="translate(79,7)"/>
<path d="M0 0 C2.64 0.66 5.28 1.32 8 2 C8 2.33 8 2.66 8 3 C3.545 3.495 3.545 3.495 -1 4 C-0.67 2.68 -0.34 1.36 0 0 Z " fill="#FDF9F7" transform="translate(106,86)"/>
<path d="M0 0 C0.125 2.375 0.125 2.375 0 5 C-1.33333333 6.33333333 -2.66666667 7.66666667 -4 9 C-4.368 3.48 -4.368 3.48 -2.5625 1.125 C-1 0 -1 0 0 0 Z " fill="#FBEBEB" transform="translate(51,32)"/>
<path d="M0 0 C0.99 0 1.98 0 3 0 C3 1.98 3 3.96 3 6 C2.01 6 1.02 6 0 6 C0 4.02 0 2.04 0 0 Z " fill="#DD1819" transform="translate(54,76)"/>
<path d="M0 0 C1.32 0.66 2.64 1.32 4 2 C4 2.99 4 3.98 4 5 C3.34 5.66 2.68 6.32 2 7 C2 5.68 2 4.36 2 3 C1.01 3 0.02 3 -1 3 C-0.67 2.01 -0.34 1.02 0 0 Z " fill="#BE2629" transform="translate(56,72)"/>
<path d="M0 0 C2.31 0.33 4.62 0.66 7 1 C6.67 1.66 6.34 2.32 6 3 C4.02 3 2.04 3 0 3 C0 2.01 0 1.02 0 0 Z " fill="#AA4243" transform="translate(48,60)"/>
<path d="M0 0 C0.66 0.66 1.32 1.32 2 2 C3.98821313 2.39764263 5.98944339 2.73775349 8 3 C7.34 3.66 6.68 4.32 6 5 C2.875 4.625 2.875 4.625 0 4 C0 2.68 0 1.36 0 0 Z " fill="#C64343" transform="translate(50,40)"/>
<path d="M0 0 C1.65 0 3.3 0 5 0 C5 3 5 3 3.5 4.6875 C3.005 5.120625 2.51 5.55375 2 6 C1.34 4.02 0.68 2.04 0 0 Z " fill="#FCDEDA" transform="translate(116,35)"/>
<path d="M0 0 C1.65 1.65 3.3 3.3 5 5 C3.0625 5.5625 3.0625 5.5625 1 6 C0 5 0 5 -0.0625 2.4375 C-0.041875 1.633125 -0.02125 0.82875 0 0 Z " fill="#FABEBA" transform="translate(39,86)"/>
<path d="M0 0 C-0.33 1.32 -0.66 2.64 -1 4 C-2.98 4 -4.96 4 -7 4 C-7 3.34 -7 2.68 -7 2 C-2.25 0 -2.25 0 0 0 Z " fill="#F9DCDA" transform="translate(142,82)"/>
<path d="M0 0 C1.65 0.99 3.3 1.98 5 3 C4.67 4.32 4.34 5.64 4 7 C2.68 6.34 1.36 5.68 0 5 C0 3.35 0 1.7 0 0 Z " fill="#FDDBD9" transform="translate(127,67)"/>
<path d="M0 0 C1.2065625 0.0309375 1.2065625 0.0309375 2.4375 0.0625 C0.08472731 2.78676311 -2.18746331 3.8766763 -5.5625 5.0625 C-3.15007962 0.07683121 -3.15007962 0.07683121 0 0 Z " fill="#FCE8EB" transform="translate(67.5625,48.9375)"/>
</svg>
